  0
SECTION
  2
HEADER
  9
$ANGBASE
  50
0.0
  9
$ANGDIR
  70
1
  9
$MEASUREMENT
  70
1
  0
ENDSEC
  0
SECTION
  2
TABLES
  0
TABLE
  2
LTYPE
  70
4
  0
LTYPE
  5
40F
  2
CONTINUOUS
  70
0
  3
Solid line
  72
65
  73
0
  40
0.0
  0
LTYPE
  5
410
  2
DASHDOT
 70
0
  3
Dash Dot ____ _ ____ _
 72
65
 73
4
 40
2.0
 49
1.25
 49
-0.25
 49
0.25
 49
-0.25
  0
LTYPE
  5
411
  2
DASHED
 70
0
  3
Dashed __ __ __ __ __
 72
65
 73
2
 40
0.75
 49
0.5
 49
-0.25
  0
LTYPE
  5
43B
  2
DOTTED
 70
0
  3
Dotted .  .  .  .
 72
65
 73
2
 40
0.2
 49
0.0
 49
-0.2
  0
ENDTAB
  0
TABLE
  2
STYLE
  70
4
  0
STYLE
  2
KICAD
  70
0
  40
0
  41
1
  42
1
  50
0
  71
0
  3
isocp.shx
  0
STYLE
  2
KICADB
  70
0
  40
0
  41
1
  42
1
  50
0
  71
0
  3
isocp.shx
  0
STYLE
  2
KICADI
  70
0
  40
0
  41
1
  42
1
  50
15
  71
0
  3
isocp.shx
  0
STYLE
  2
KICADBI
  70
0
  40
0
  41
1
  42
1
  50
15
  71
0
  3
isocp.shx
  0
ENDTAB
  0
TABLE
  2
LAYER
  70
35
  0
LAYER
  2
BLACK
  70
0
  62
7
  6
CONTINUOUS
  0
LAYER
  2
GRAY1
  70
0
  62
251
  6
CONTINUOUS
  0
LAYER
  2
GRAY2
  70
0
  62
8
  6
CONTINUOUS
  0
LAYER
  2
GRAY3
  70
0
  62
9
  6
CONTINUOUS
  0
LAYER
  2
WHITE
  70
0
  62
7
  6
CONTINUOUS
  0
LAYER
  2
LYELLOW
  70
0
  62
51
  6
CONTINUOUS
  0
LAYER
  2
LORANGE
  70
0
  62
41
  6
CONTINUOUS
  0
LAYER
  2
BLUE1
  70
0
  62
178
  6
CONTINUOUS
  0
LAYER
  2
GREEN1
  70
0
  62
98
  6
CONTINUOUS
  0
LAYER
  2
CYAN1
  70
0
  62
138
  6
CONTINUOUS
  0
LAYER
  2
RED1
  70
0
  62
18
  6
CONTINUOUS
  0
LAYER
  2
MAGENTA1
  70
0
  62
228
  6
CONTINUOUS
  0
LAYER
  2
BROWN1
  70
0
  62
58
  6
CONTINUOUS
  0
LAYER
  2
ORANGE1
  70
0
  62
34
  6
CONTINUOUS
  0
LAYER
  2
BLUE2
  70
0
  62
5
  6
CONTINUOUS
  0
LAYER
  2
GREEN2
  70
0
  62
3
  6
CONTINUOUS
  0
LAYER
  2
CYAN2
  70
0
  62
4
  6
CONTINUOUS
  0
LAYER
  2
RED2
  70
0
  62
1
  6
CONTINUOUS
  0
LAYER
  2
MAGENTA2
  70
0
  62
6
  6
CONTINUOUS
  0
LAYER
  2
BROWN2
  70
0
  62
54
  6
CONTINUOUS
  0
LAYER
  2
ORANGE2
  70
0
  62
42
  6
CONTINUOUS
  0
LAYER
  2
BLUE3
  70
0
  62
171
  6
CONTINUOUS
  0
LAYER
  2
GREEN3
  70
0
  62
91
  6
CONTINUOUS
  0
LAYER
  2
CYAN3
  70
0
  62
131
  6
CONTINUOUS
  0
LAYER
  2
RED3
  70
0
  62
11
  6
CONTINUOUS
  0
LAYER
  2
MAGENTA3
  70
0
  62
221
  6
CONTINUOUS
  0
LAYER
  2
YELLOW3
  70
0
  62
2
  6
CONTINUOUS
  0
LAYER
  2
ORANGE3
  70
0
  62
32
  6
CONTINUOUS
  0
LAYER
  2
BLUE4
  70
0
  62
5
  6
CONTINUOUS
  0
LAYER
  2
GREEN4
  70
0
  62
3
  6
CONTINUOUS
  0
LAYER
  2
CYAN4
  70
0
  62
4
  6
CONTINUOUS
  0
LAYER
  2
RED4
  70
0
  62
1
  6
CONTINUOUS
  0
LAYER
  2
MAGENTA4
  70
0
  62
6
  6
CONTINUOUS
  0
LAYER
  2
YELLOW4
  70
0
  62
2
  6
CONTINUOUS
  0
LAYER
  2
ORANGE4
  70
0
  62
40
  6
CONTINUOUS
  0
ENDTAB
  0
ENDSEC
  0
SECTION
  2
ENTITIES
0
LINE
8
BLACK
6
CONTINUOUS
10
134.835000000000008
20
-112.0150000000000006
11
133.7349999999999852
21
-112.0150000000000006
0
LINE
8
BLACK
6
CONTINUOUS
10
133.7349999999999852
20
-112.0150000000000006
11
133.7349999999999852
21
-111.7650000000000006
0
LINE
8
BLACK
6
CONTINUOUS
10
133.7349999999999852
20
-111.7650000000000006
11
134.835000000000008
21
-111.7650000000000006
0
LINE
8
BLACK
6
CONTINUOUS
10
134.835000000000008
20
-111.7650000000000006
11
134.835000000000008
21
-112.0150000000000006
0
LINE
8
BLACK
6
CONTINUOUS
10
139.1349999999999909
20
-112.0150000000000006
11
138.0349999999999966
21
-112.0150000000000006
0
LINE
8
BLACK
6
CONTINUOUS
10
138.0349999999999966
20
-112.0150000000000006
11
138.0349999999999966
21
-111.7650000000000006
0
LINE
8
BLACK
6
CONTINUOUS
10
138.0349999999999966
20
-111.7650000000000006
11
139.1349999999999909
21
-111.7650000000000006
0
LINE
8
BLACK
6
CONTINUOUS
10
139.1349999999999909
20
-111.7650000000000006
11
139.1349999999999909
21
-112.0150000000000006
0
LINE
8
BLACK
6
CONTINUOUS
10
134.835000000000008
20
-111.5150000000000006
11
133.7349999999999852
21
-111.5150000000000006
0
LINE
8
BLACK
6
CONTINUOUS
10
133.7349999999999852
20
-111.5150000000000006
11
133.7349999999999852
21
-111.2650000000000006
0
LINE
8
BLACK
6
CONTINUOUS
10
133.7349999999999852
20
-111.2650000000000006
11
134.835000000000008
21
-111.2650000000000006
0
LINE
8
BLACK
6
CONTINUOUS
10
134.835000000000008
20
-111.2650000000000006
11
134.835000000000008
21
-111.5150000000000006
0
LINE
8
BLACK
6
CONTINUOUS
10
139.1349999999999909
20
-111.5150000000000006
11
138.0349999999999966
21
-111.5150000000000006
0
LINE
8
BLACK
6
CONTINUOUS
10
138.0349999999999966
20
-111.5150000000000006
11
138.0349999999999966
21
-111.2650000000000006
0
LINE
8
BLACK
6
CONTINUOUS
10
138.0349999999999966
20
-111.2650000000000006
11
139.1349999999999909
21
-111.2650000000000006
0
LINE
8
BLACK
6
CONTINUOUS
10
139.1349999999999909
20
-111.2650000000000006
11
139.1349999999999909
21
-111.5150000000000006
0
LINE
8
BLACK
6
CONTINUOUS
10
134.835000000000008
20
-111.0150000000000006
11
133.7349999999999852
21
-111.0150000000000006
0
LINE
8
BLACK
6
CONTINUOUS
10
133.7349999999999852
20
-111.0150000000000006
11
133.7349999999999852
21
-110.7650000000000006
0
LINE
8
BLACK
6
CONTINUOUS
10
133.7349999999999852
20
-110.7650000000000006
11
134.835000000000008
21
-110.7650000000000006
0
LINE
8
BLACK
6
CONTINUOUS
10
134.835000000000008
20
-110.7650000000000006
11
134.835000000000008
21
-111.0150000000000006
0
LINE
8
BLACK
6
CONTINUOUS
10
139.1349999999999909
20
-111.0150000000000006
11
138.0349999999999966
21
-111.0150000000000006
0
LINE
8
BLACK
6
CONTINUOUS
10
138.0349999999999966
20
-111.0150000000000006
11
138.0349999999999966
21
-110.7650000000000006
0
LINE
8
BLACK
6
CONTINUOUS
10
138.0349999999999966
20
-110.7650000000000006
11
139.1349999999999909
21
-110.7650000000000006
0
LINE
8
BLACK
6
CONTINUOUS
10
139.1349999999999909
20
-110.7650000000000006
11
139.1349999999999909
21
-111.0150000000000006
0
LINE
8
BLACK
6
CONTINUOUS
10
134.835000000000008
20
-110.5150000000000006
11
133.7349999999999852
21
-110.5150000000000006
0
LINE
8
BLACK
6
CONTINUOUS
10
133.7349999999999852
20
-110.5150000000000006
11
133.7349999999999852
21
-110.2650000000000006
0
LINE
8
BLACK
6
CONTINUOUS
10
133.7349999999999852
20
-110.2650000000000006
11
134.835000000000008
21
-110.2650000000000006
0
LINE
8
BLACK
6
CONTINUOUS
10
134.835000000000008
20
-110.2650000000000006
11
134.835000000000008
21
-110.5150000000000006
0
LINE
8
BLACK
6
CONTINUOUS
10
139.1349999999999909
20
-110.5150000000000006
11
138.0349999999999966
21
-110.5150000000000006
0
LINE
8
BLACK
6
CONTINUOUS
10
138.0349999999999966
20
-110.5150000000000006
11
138.0349999999999966
21
-110.2650000000000006
0
LINE
8
BLACK
6
CONTINUOUS
10
138.0349999999999966
20
-110.2650000000000006
11
139.1349999999999909
21
-110.2650000000000006
0
LINE
8
BLACK
6
CONTINUOUS
10
139.1349999999999909
20
-110.2650000000000006
11
139.1349999999999909
21
-110.5150000000000006
0
LINE
8
BLACK
6
CONTINUOUS
10
134.835000000000008
20
-110.0150000000000006
11
133.7349999999999852
21
-110.0150000000000006
0
LINE
8
BLACK
6
CONTINUOUS
10
133.7349999999999852
20
-110.0150000000000006
11
133.7349999999999852
21
-109.7650000000000006
0
LINE
8
BLACK
6
CONTINUOUS
10
133.7349999999999852
20
-109.7650000000000006
11
134.835000000000008
21
-109.7650000000000006
0
LINE
8
BLACK
6
CONTINUOUS
10
134.835000000000008
20
-109.7650000000000006
11
134.835000000000008
21
-110.0150000000000006
0
LINE
8
BLACK
6
CONTINUOUS
10
139.1349999999999909
20
-110.0150000000000006
11
138.0349999999999966
21
-110.0150000000000006
0
LINE
8
BLACK
6
CONTINUOUS
10
138.0349999999999966
20
-110.0150000000000006
11
138.0349999999999966
21
-109.7650000000000006
0
LINE
8
BLACK
6
CONTINUOUS
10
138.0349999999999966
20
-109.7650000000000006
11
139.1349999999999909
21
-109.7650000000000006
0
LINE
8
BLACK
6
CONTINUOUS
10
139.1349999999999909
20
-109.7650000000000006
11
139.1349999999999909
21
-110.0150000000000006
0
LINE
8
BLACK
6
CONTINUOUS
10
191.70326799999998
20
-84.8826119999999946
11
191.7357109999999807
21
-84.9042889999999915
0
LINE
8
BLACK
6
CONTINUOUS
10
191.7357109999999807
20
-84.9042889999999915
11
191.7573879999999917
21
-84.9367319999999921
0
LINE
8
BLACK
6
CONTINUOUS
10
191.7573879999999917
20
-84.9367319999999921
11
191.7649999999999864
21
-84.9749999999999943
0
LINE
8
BLACK
6
CONTINUOUS
10
191.7649999999999864
20
-84.9749999999999943
11
191.7649999999999864
21
-85.1749999999999972
0
LINE
8
BLACK
6
CONTINUOUS
10
191.7649999999999864
20
-85.1749999999999972
11
191.7573879999999917
21
-85.2132679999999993
0
LINE
8
BLACK
6
CONTINUOUS
10
191.7573879999999917
20
-85.2132679999999993
11
191.7357109999999807
21
-85.245711
0
LINE
8
BLACK
6
CONTINUOUS
10
191.7357109999999807
20
-85.245711
11
191.70326799999998
21
-85.2673879999999969
0
LINE
8
BLACK
6
CONTINUOUS
10
191.70326799999998
20
-85.2673879999999969
11
191.664999999999992
21
-85.2749999999999915
0
LINE
8
BLACK
6
CONTINUOUS
10
191.664999999999992
20
-85.2749999999999915
11
190.3899999999999864
21
-85.2749999999999915
0
LINE
8
BLACK
6
CONTINUOUS
10
190.3899999999999864
20
-85.2749999999999915
11
190.3517319999999984
21
-85.2673879999999969
0
LINE
8
BLACK
6
CONTINUOUS
10
190.3517319999999984
20
-85.2673879999999969
11
190.3192889999999977
21
-85.245711
0
LINE
8
BLACK
6
CONTINUOUS
10
190.3192889999999977
20
-85.245711
11
190.2976119999999867
21
-85.2132679999999993
0
LINE
8
BLACK
6
CONTINUOUS
10
190.2976119999999867
20
-85.2132679999999993
11
190.289999999999992
21
-85.1749999999999972
0
LINE
8
BLACK
6
CONTINUOUS
10
190.289999999999992
20
-85.1749999999999972
11
190.289999999999992
21
-84.9749999999999943
0
LINE
8
BLACK
6
CONTINUOUS
10
190.289999999999992
20
-84.9749999999999943
11
190.2976119999999867
21
-84.9367319999999921
0
LINE
8
BLACK
6
CONTINUOUS
10
190.2976119999999867
20
-84.9367319999999921
11
190.3192889999999977
21
-84.9042889999999915
0
LINE
8
BLACK
6
CONTINUOUS
10
190.3192889999999977
20
-84.9042889999999915
11
190.3517319999999984
21
-84.8826119999999946
0
LINE
8
BLACK
6
CONTINUOUS
10
190.3517319999999984
20
-84.8826119999999946
11
190.3899999999999864
21
-84.875
0
LINE
8
BLACK
6
CONTINUOUS
10
190.3899999999999864
20
-84.875
11
191.664999999999992
21
-84.875
0
LINE
8
BLACK
6
CONTINUOUS
10
191.664999999999992
20
-84.875
11
191.70326799999998
21
-84.8826119999999946
0
LINE
8
BLACK
6
CONTINUOUS
10
197.4282680000000028
20
-84.8826119999999946
11
197.4607110000000034
21
-84.9042889999999915
0
LINE
8
BLACK
6
CONTINUOUS
10
197.4607110000000034
20
-84.9042889999999915
11
197.4823879999999861
21
-84.9367319999999921
0
LINE
8
BLACK
6
CONTINUOUS
10
197.4823879999999861
20
-84.9367319999999921
11
197.4899999999999807
21
-84.9749999999999943
0
LINE
8
BLACK
6
CONTINUOUS
10
197.4899999999999807
20
-84.9749999999999943
11
197.4899999999999807
21
-85.1749999999999972
0
LINE
8
BLACK
6
CONTINUOUS
10
197.4899999999999807
20
-85.1749999999999972
11
197.4823879999999861
21
-85.2132679999999993
0
LINE
8
BLACK
6
CONTINUOUS
10
197.4823879999999861
20
-85.2132679999999993
11
197.4607110000000034
21
-85.245711
0
LINE
8
BLACK
6
CONTINUOUS
10
197.4607110000000034
20
-85.245711
11
197.4282680000000028
21
-85.2673879999999969
0
LINE
8
BLACK
6
CONTINUOUS
10
197.4282680000000028
20
-85.2673879999999969
11
197.3899999999999864
21
-85.2749999999999915
0
LINE
8
BLACK
6
CONTINUOUS
10
197.3899999999999864
20
-85.2749999999999915
11
196.1149999999999807
21
-85.2749999999999915
0
LINE
8
BLACK
6
CONTINUOUS
10
196.1149999999999807
20
-85.2749999999999915
11
196.0767319999999927
21
-85.2673879999999969
0
LINE
8
BLACK
6
CONTINUOUS
10
196.0767319999999927
20
-85.2673879999999969
11
196.044288999999992
21
-85.245711
0
LINE
8
BLACK
6
CONTINUOUS
10
196.044288999999992
20
-85.245711
11
196.022611999999981
21
-85.2132679999999993
0
LINE
8
BLACK
6
CONTINUOUS
10
196.022611999999981
20
-85.2132679999999993
11
196.0149999999999864
21
-85.1749999999999972
0
LINE
8
BLACK
6
CONTINUOUS
10
196.0149999999999864
20
-85.1749999999999972
11
196.0149999999999864
21
-84.9749999999999943
0
LINE
8
BLACK
6
CONTINUOUS
10
196.0149999999999864
20
-84.9749999999999943
11
196.022611999999981
21
-84.9367319999999921
0
LINE
8
BLACK
6
CONTINUOUS
10
196.022611999999981
20
-84.9367319999999921
11
196.044288999999992
21
-84.9042889999999915
0
LINE
8
BLACK
6
CONTINUOUS
10
196.044288999999992
20
-84.9042889999999915
11
196.0767319999999927
21
-84.8826119999999946
0
LINE
8
BLACK
6
CONTINUOUS
10
196.0767319999999927
20
-84.8826119999999946
11
196.1149999999999807
21
-84.875
0
LINE
8
BLACK
6
CONTINUOUS
10
196.1149999999999807
20
-84.875
11
197.3899999999999864
21
-84.875
0
LINE
8
BLACK
6
CONTINUOUS
10
197.3899999999999864
20
-84.875
11
197.4282680000000028
21
-84.8826119999999946
0
LINE
8
BLACK
6
CONTINUOUS
10
191.70326799999998
20
-84.2326120000000031
11
191.7357109999999807
21
-84.254289
0
LINE
8
BLACK
6
CONTINUOUS
10
191.7357109999999807
20
-84.254289
11
191.7573879999999917
21
-84.2867320000000007
0
LINE
8
BLACK
6
CONTINUOUS
10
191.7573879999999917
20
-84.2867320000000007
11
191.7649999999999864
21
-84.3250000000000028
0
LINE
8
BLACK
6
CONTINUOUS
10
191.7649999999999864
20
-84.3250000000000028
11
191.7649999999999864
21
-84.5249999999999915
0
LINE
8
BLACK
6
CONTINUOUS
10
191.7649999999999864
20
-84.5249999999999915
11
191.7573879999999917
21
-84.5632679999999937
0
LINE
8
BLACK
6
CONTINUOUS
10
191.7573879999999917
20
-84.5632679999999937
11
191.7357109999999807
21
-84.5957109999999943
0
LINE
8
BLACK
6
CONTINUOUS
10
191.7357109999999807
20
-84.5957109999999943
11
191.70326799999998
21
-84.6173879999999912
0
LINE
8
BLACK
6
CONTINUOUS
10
191.70326799999998
20
-84.6173879999999912
11
191.664999999999992
21
-84.625
0
LINE
8
BLACK
6
CONTINUOUS
10
191.664999999999992
20
-84.625
11
190.3899999999999864
21
-84.625
0
LINE
8
BLACK
6
CONTINUOUS
10
190.3899999999999864
20
-84.625
11
190.3517319999999984
21
-84.6173879999999912
0
LINE
8
BLACK
6
CONTINUOUS
10
190.3517319999999984
20
-84.6173879999999912
11
190.3192889999999977
21
-84.5957109999999943
0
LINE
8
BLACK
6
CONTINUOUS
10
190.3192889999999977
20
-84.5957109999999943
11
190.2976119999999867
21
-84.5632679999999937
0
LINE
8
BLACK
6
CONTINUOUS
10
190.2976119999999867
20
-84.5632679999999937
11
190.289999999999992
21
-84.5249999999999915
0
LINE
8
BLACK
6
CONTINUOUS
10
190.289999999999992
20
-84.5249999999999915
11
190.289999999999992
21
-84.3250000000000028
0
LINE
8
BLACK
6
CONTINUOUS
10
190.289999999999992
20
-84.3250000000000028
11
190.2976119999999867
21
-84.2867320000000007
0
LINE
8
BLACK
6
CONTINUOUS
10
190.2976119999999867
20
-84.2867320000000007
11
190.3192889999999977
21
-84.254289
0
LINE
8
BLACK
6
CONTINUOUS
10
190.3192889999999977
20
-84.254289
11
190.3517319999999984
21
-84.2326120000000031
0
LINE
8
BLACK
6
CONTINUOUS
10
190.3517319999999984
20
-84.2326120000000031
11
190.3899999999999864
21
-84.2249999999999943
0
LINE
8
BLACK
6
CONTINUOUS
10
190.3899999999999864
20
-84.2249999999999943
11
191.664999999999992
21
-84.2249999999999943
0
LINE
8
BLACK
6
CONTINUOUS
10
191.664999999999992
20
-84.2249999999999943
11
191.70326799999998
21
-84.2326120000000031
0
LINE
8
BLACK
6
CONTINUOUS
10
197.4282680000000028
20
-84.2326120000000031
11
197.4607110000000034
21
-84.254289
0
LINE
8
BLACK
6
CONTINUOUS
10
197.4607110000000034
20
-84.254289
11
197.4823879999999861
21
-84.2867320000000007
0
LINE
8
BLACK
6
CONTINUOUS
10
197.4823879999999861
20
-84.2867320000000007
11
197.4899999999999807
21
-84.3250000000000028
0
LINE
8
BLACK
6
CONTINUOUS
10
197.4899999999999807
20
-84.3250000000000028
11
197.4899999999999807
21
-84.5249999999999915
0
LINE
8
BLACK
6
CONTINUOUS
10
197.4899999999999807
20
-84.5249999999999915
11
197.4823879999999861
21
-84.5632679999999937
0
LINE
8
BLACK
6
CONTINUOUS
10
197.4823879999999861
20
-84.5632679999999937
11
197.4607110000000034
21
-84.5957109999999943
0
LINE
8
BLACK
6
CONTINUOUS
10
197.4607110000000034
20
-84.5957109999999943
11
197.4282680000000028
21
-84.6173879999999912
0
LINE
8
BLACK
6
CONTINUOUS
10
197.4282680000000028
20
-84.6173879999999912
11
197.3899999999999864
21
-84.625
0
LINE
8
BLACK
6
CONTINUOUS
10
197.3899999999999864
20
-84.625
11
196.1149999999999807
21
-84.625
0
LINE
8
BLACK
6
CONTINUOUS
10
196.1149999999999807
20
-84.625
11
196.0767319999999927
21
-84.6173879999999912
0
LINE
8
BLACK
6
CONTINUOUS
10
196.0767319999999927
20
-84.6173879999999912
11
196.044288999999992
21
-84.5957109999999943
0
LINE
8
BLACK
6
CONTINUOUS
10
196.044288999999992
20
-84.5957109999999943
11
196.022611999999981
21
-84.5632679999999937
0
LINE
8
BLACK
6
CONTINUOUS
10
196.022611999999981
20
-84.5632679999999937
11
196.0149999999999864
21
-84.5249999999999915
0
LINE
8
BLACK
6
CONTINUOUS
10
196.0149999999999864
20
-84.5249999999999915
11
196.0149999999999864
21
-84.3250000000000028
0
LINE
8
BLACK
6
CONTINUOUS
10
196.0149999999999864
20
-84.3250000000000028
11
196.022611999999981
21
-84.2867320000000007
0
LINE
8
BLACK
6
CONTINUOUS
10
196.022611999999981
20
-84.2867320000000007
11
196.044288999999992
21
-84.254289
0
LINE
8
BLACK
6
CONTINUOUS
10
196.044288999999992
20
-84.254289
11
196.0767319999999927
21
-84.2326120000000031
0
LINE
8
BLACK
6
CONTINUOUS
10
196.0767319999999927
20
-84.2326120000000031
11
196.1149999999999807
21
-84.2249999999999943
0
LINE
8
BLACK
6
CONTINUOUS
10
196.1149999999999807
20
-84.2249999999999943
11
197.3899999999999864
21
-84.2249999999999943
0
LINE
8
BLACK
6
CONTINUOUS
10
197.3899999999999864
20
-84.2249999999999943
11
197.4282680000000028
21
-84.2326120000000031
0
LINE
8
BLACK
6
CONTINUOUS
10
125.9806659999999994
20
-84.0300009999999986
11
125.4506659999999982
21
-84.0300009999999986
0
LINE
8
BLACK
6
CONTINUOUS
10
125.4506659999999982
20
-84.0300009999999986
11
125.4506659999999982
21
-83.4850009999999969
0
LINE
8
BLACK
6
CONTINUOUS
10
125.4506659999999982
20
-83.4850009999999969
11
125.9806659999999994
21
-83.4850009999999969
0
LINE
8
BLACK
6
CONTINUOUS
10
125.9806659999999994
20
-83.4850009999999969
11
125.9806659999999994
21
-84.0300009999999986
0
LINE
8
BLACK
6
CONTINUOUS
10
126.7306669999999968
20
-84.0300009999999986
11
126.2006669999999957
21
-84.0300009999999986
0
LINE
8
BLACK
6
CONTINUOUS
10
126.2006669999999957
20
-84.0300009999999986
11
126.2006669999999957
21
-83.4850009999999969
0
LINE
8
BLACK
6
CONTINUOUS
10
126.2006669999999957
20
-83.4850009999999969
11
126.7306669999999968
21
-83.4850009999999969
0
LINE
8
BLACK
6
CONTINUOUS
10
126.7306669999999968
20
-83.4850009999999969
11
126.7306669999999968
21
-84.0300009999999986
0
LINE
8
BLACK
6
CONTINUOUS
10
127.4806659999999994
20
-84.0300009999999986
11
126.9506659999999982
21
-84.0300009999999986
0
LINE
8
BLACK
6
CONTINUOUS
10
126.9506659999999982
20
-84.0300009999999986
11
126.9506659999999982
21
-83.4850009999999969
0
LINE
8
BLACK
6
CONTINUOUS
10
126.9506659999999982
20
-83.4850009999999969
11
127.4806659999999994
21
-83.4850009999999969
0
LINE
8
BLACK
6
CONTINUOUS
10
127.4806659999999994
20
-83.4850009999999969
11
127.4806659999999994
21
-84.0300009999999986
0
LINE
8
BLACK
6
CONTINUOUS
10
128.2306669999999826
20
-84.0300009999999986
11
127.7006669999999957
21
-84.0300009999999986
0
LINE
8
BLACK
6
CONTINUOUS
10
127.7006669999999957
20
-84.0300009999999986
11
127.7006669999999957
21
-83.4850009999999969
0
LINE
8
BLACK
6
CONTINUOUS
10
127.7006669999999957
20
-83.4850009999999969
11
128.2306669999999826
21
-83.4850009999999969
0
LINE
8
BLACK
6
CONTINUOUS
10
128.2306669999999826
20
-83.4850009999999969
11
128.2306669999999826
21
-84.0300009999999986
0
LINE
8
BLACK
6
CONTINUOUS
10
128.9806679999999801
20
-84.0300009999999986
11
128.4506680000000074
21
-84.0300009999999986
0
LINE
8
BLACK
6
CONTINUOUS
10
128.4506680000000074
20
-84.0300009999999986
11
128.4506680000000074
21
-83.4850009999999969
0
LINE
8
BLACK
6
CONTINUOUS
10
128.4506680000000074
20
-83.4850009999999969
11
128.9806679999999801
21
-83.4850009999999969
0
LINE
8
BLACK
6
CONTINUOUS
10
128.9806679999999801
20
-83.4850009999999969
11
128.9806679999999801
21
-84.0300009999999986
0
LINE
8
BLACK
6
CONTINUOUS
10
129.7306669999999826
20
-84.0300009999999986
11
129.2006669999999815
21
-84.0300009999999986
0
LINE
8
BLACK
6
CONTINUOUS
10
129.2006669999999815
20
-84.0300009999999986
11
129.2006669999999815
21
-83.4850009999999969
0
LINE
8
BLACK
6
CONTINUOUS
10
129.2006669999999815
20
-83.4850009999999969
11
129.7306669999999826
21
-83.4850009999999969
0
LINE
8
BLACK
6
CONTINUOUS
10
129.7306669999999826
20
-83.4850009999999969
11
129.7306669999999826
21
-84.0300009999999986
0
LINE
8
BLACK
6
CONTINUOUS
10
130.4806679999999801
20
-84.0300009999999986
11
129.9506680000000074
21
-84.0300009999999986
0
LINE
8
BLACK
6
CONTINUOUS
10
129.9506680000000074
20
-84.0300009999999986
11
129.9506680000000074
21
-83.4850009999999969
0
LINE
8
BLACK
6
CONTINUOUS
10
129.9506680000000074
20
-83.4850009999999969
11
130.4806679999999801
21
-83.4850009999999969
0
LINE
8
BLACK
6
CONTINUOUS
10
130.4806679999999801
20
-83.4850009999999969
11
130.4806679999999801
21
-84.0300009999999986
0
LINE
8
BLACK
6
CONTINUOUS
10
145.9806659999999852
20
-84.0300009999999986
11
145.450665999999984
21
-84.0300009999999986
0
LINE
8
BLACK
6
CONTINUOUS
10
145.450665999999984
20
-84.0300009999999986
11
145.450665999999984
21
-83.4850009999999969
0
LINE
8
BLACK
6
CONTINUOUS
10
145.450665999999984
20
-83.4850009999999969
11
145.9806659999999852
21
-83.4850009999999969
0
LINE
8
BLACK
6
CONTINUOUS
10
145.9806659999999852
20
-83.4850009999999969
11
145.9806659999999852
21
-84.0300009999999986
0
LINE
8
BLACK
6
CONTINUOUS
10
146.7306669999999826
20
-84.0300009999999986
11
146.2006669999999815
21
-84.0300009999999986
0
LINE
8
BLACK
6
CONTINUOUS
10
146.2006669999999815
20
-84.0300009999999986
11
146.2006669999999815
21
-83.4850009999999969
0
LINE
8
BLACK
6
CONTINUOUS
10
146.2006669999999815
20
-83.4850009999999969
11
146.7306669999999826
21
-83.4850009999999969
0
LINE
8
BLACK
6
CONTINUOUS
10
146.7306669999999826
20
-83.4850009999999969
11
146.7306669999999826
21
-84.0300009999999986
0
LINE
8
BLACK
6
CONTINUOUS
10
147.4806659999999852
20
-84.0300009999999986
11
146.950665999999984
21
-84.0300009999999986
0
LINE
8
BLACK
6
CONTINUOUS
10
146.950665999999984
20
-84.0300009999999986
11
146.950665999999984
21
-83.4850009999999969
0
LINE
8
BLACK
6
CONTINUOUS
10
146.950665999999984
20
-83.4850009999999969
11
147.4806659999999852
21
-83.4850009999999969
0
LINE
8
BLACK
6
CONTINUOUS
10
147.4806659999999852
20
-83.4850009999999969
11
147.4806659999999852
21
-84.0300009999999986
0
LINE
8
BLACK
6
CONTINUOUS
10
148.2306669999999826
20
-84.0300009999999986
11
147.7006669999999815
21
-84.0300009999999986
0
LINE
8
BLACK
6
CONTINUOUS
10
147.7006669999999815
20
-84.0300009999999986
11
147.7006669999999815
21
-83.4850009999999969
0
LINE
8
BLACK
6
CONTINUOUS
10
147.7006669999999815
20
-83.4850009999999969
11
148.2306669999999826
21
-83.4850009999999969
0
LINE
8
BLACK
6
CONTINUOUS
10
148.2306669999999826
20
-83.4850009999999969
11
148.2306669999999826
21
-84.0300009999999986
0
LINE
8
BLACK
6
CONTINUOUS
10
148.9806679999999801
20
-84.0300009999999986
11
148.4506680000000074
21
-84.0300009999999986
0
LINE
8
BLACK
6
CONTINUOUS
10
148.4506680000000074
20
-84.0300009999999986
11
148.4506680000000074
21
-83.4850009999999969
0
LINE
8
BLACK
6
CONTINUOUS
10
148.4506680000000074
20
-83.4850009999999969
11
148.9806679999999801
21
-83.4850009999999969
0
LINE
8
BLACK
6
CONTINUOUS
10
148.9806679999999801
20
-83.4850009999999969
11
148.9806679999999801
21
-84.0300009999999986
0
LINE
8
BLACK
6
CONTINUOUS
10
149.7306669999999826
20
-84.0300009999999986
11
149.2006669999999815
21
-84.0300009999999986
0
LINE
8
BLACK
6
CONTINUOUS
10
149.2006669999999815
20
-84.0300009999999986
11
149.2006669999999815
21
-83.4850009999999969
0
LINE
8
BLACK
6
CONTINUOUS
10
149.2006669999999815
20
-83.4850009999999969
11
149.7306669999999826
21
-83.4850009999999969
0
LINE
8
BLACK
6
CONTINUOUS
10
149.7306669999999826
20
-83.4850009999999969
11
149.7306669999999826
21
-84.0300009999999986
0
LINE
8
BLACK
6
CONTINUOUS
10
150.4806679999999801
20
-84.0300009999999986
11
149.9506680000000074
21
-84.0300009999999986
0
LINE
8
BLACK
6
CONTINUOUS
10
149.9506680000000074
20
-84.0300009999999986
11
149.9506680000000074
21
-83.4850009999999969
0
LINE
8
BLACK
6
CONTINUOUS
10
149.9506680000000074
20
-83.4850009999999969
11
150.4806679999999801
21
-83.4850009999999969
0
LINE
8
BLACK
6
CONTINUOUS
10
150.4806679999999801
20
-83.4850009999999969
11
150.4806679999999801
21
-84.0300009999999986
0
LINE
8
BLACK
6
CONTINUOUS
10
165.9806659999999852
20
-84.0300009999999986
11
165.450665999999984
21
-84.0300009999999986
0
LINE
8
BLACK
6
CONTINUOUS
10
165.450665999999984
20
-84.0300009999999986
11
165.450665999999984
21
-83.4850009999999969
0
LINE
8
BLACK
6
CONTINUOUS
10
165.450665999999984
20
-83.4850009999999969
11
165.9806659999999852
21
-83.4850009999999969
0
LINE
8
BLACK
6
CONTINUOUS
10
165.9806659999999852
20
-83.4850009999999969
11
165.9806659999999852
21
-84.0300009999999986
0
LINE
8
BLACK
6
CONTINUOUS
10
166.7306669999999826
20
-84.0300009999999986
11
166.2006669999999815
21
-84.0300009999999986
0
LINE
8
BLACK
6
CONTINUOUS
10
166.2006669999999815
20
-84.0300009999999986
11
166.2006669999999815
21
-83.4850009999999969
0
LINE
8
BLACK
6
CONTINUOUS
10
166.2006669999999815
20
-83.4850009999999969
11
166.7306669999999826
21
-83.4850009999999969
0
LINE
8
BLACK
6
CONTINUOUS
10
166.7306669999999826
20
-83.4850009999999969
11
166.7306669999999826
21
-84.0300009999999986
0
LINE
8
BLACK
6
CONTINUOUS
10
167.4806659999999852
20
-84.0300009999999986
11
166.950665999999984
21
-84.0300009999999986
0
LINE
8
BLACK
6
CONTINUOUS
10
166.950665999999984
20
-84.0300009999999986
11
166.950665999999984
21
-83.4850009999999969
0
LINE
8
BLACK
6
CONTINUOUS
10
166.950665999999984
20
-83.4850009999999969
11
167.4806659999999852
21
-83.4850009999999969
0
LINE
8
BLACK
6
CONTINUOUS
10
167.4806659999999852
20
-83.4850009999999969
11
167.4806659999999852
21
-84.0300009999999986
0
LINE
8
BLACK
6
CONTINUOUS
10
168.2306669999999826
20
-84.0300009999999986
11
167.7006669999999815
21
-84.0300009999999986
0
LINE
8
BLACK
6
CONTINUOUS
10
167.7006669999999815
20
-84.0300009999999986
11
167.7006669999999815
21
-83.4850009999999969
0
LINE
8
BLACK
6
CONTINUOUS
10
167.7006669999999815
20
-83.4850009999999969
11
168.2306669999999826
21
-83.4850009999999969
0
LINE
8
BLACK
6
CONTINUOUS
10
168.2306669999999826
20
-83.4850009999999969
11
168.2306669999999826
21
-84.0300009999999986
0
LINE
8
BLACK
6
CONTINUOUS
10
168.9806679999999801
20
-84.0300009999999986
11
168.450667999999979
21
-84.0300009999999986
0
LINE
8
BLACK
6
CONTINUOUS
10
168.450667999999979
20
-84.0300009999999986
11
168.450667999999979
21
-83.4850009999999969
0
LINE
8
BLACK
6
CONTINUOUS
10
168.450667999999979
20
-83.4850009999999969
11
168.9806679999999801
21
-83.4850009999999969
0
LINE
8
BLACK
6
CONTINUOUS
10
168.9806679999999801
20
-83.4850009999999969
11
168.9806679999999801
21
-84.0300009999999986
0
LINE
8
BLACK
6
CONTINUOUS
10
169.7306669999999826
20
-84.0300009999999986
11
169.2006669999999815
21
-84.0300009999999986
0
LINE
8
BLACK
6
CONTINUOUS
10
169.2006669999999815
20
-84.0300009999999986
11
169.2006669999999815
21
-83.4850009999999969
0
LINE
8
BLACK
6
CONTINUOUS
10
169.2006669999999815
20
-83.4850009999999969
11
169.7306669999999826
21
-83.4850009999999969
0
LINE
8
BLACK
6
CONTINUOUS
10
169.7306669999999826
20
-83.4850009999999969
11
169.7306669999999826
21
-84.0300009999999986
0
LINE
8
BLACK
6
CONTINUOUS
10
170.4806679999999801
20
-84.0300009999999986
11
169.950667999999979
21
-84.0300009999999986
0
LINE
8
BLACK
6
CONTINUOUS
10
169.950667999999979
20
-84.0300009999999986
11
169.950667999999979
21
-83.4850009999999969
0
LINE
8
BLACK
6
CONTINUOUS
10
169.950667999999979
20
-83.4850009999999969
11
170.4806679999999801
21
-83.4850009999999969
0
LINE
8
BLACK
6
CONTINUOUS
10
170.4806679999999801
20
-83.4850009999999969
11
170.4806679999999801
21
-84.0300009999999986
0
LINE
8
BLACK
6
CONTINUOUS
10
191.70326799999998
20
-83.5826119999999975
11
191.7357109999999807
21
-83.6042889999999943
0
LINE
8
BLACK
6
CONTINUOUS
10
191.7357109999999807
20
-83.6042889999999943
11
191.7573879999999917
21
-83.636731999999995
0
LINE
8
BLACK
6
CONTINUOUS
10
191.7573879999999917
20
-83.636731999999995
11
191.7649999999999864
21
-83.6749999999999972
0
LINE
8
BLACK
6
CONTINUOUS
10
191.7649999999999864
20
-83.6749999999999972
11
191.7649999999999864
21
-83.875
0
LINE
8
BLACK
6
CONTINUOUS
10
191.7649999999999864
20
-83.875
11
191.7573879999999917
21
-83.9132680000000022
0
LINE
8
BLACK
6
CONTINUOUS
10
191.7573879999999917
20
-83.9132680000000022
11
191.7357109999999807
21
-83.9457110000000029
0
LINE
8
BLACK
6
CONTINUOUS
10
191.7357109999999807
20
-83.9457110000000029
11
191.70326799999998
21
-83.9673879999999997
0
LINE
8
BLACK
6
CONTINUOUS
10
191.70326799999998
20
-83.9673879999999997
11
191.664999999999992
21
-83.9749999999999943
0
LINE
8
BLACK
6
CONTINUOUS
10
191.664999999999992
20
-83.9749999999999943
11
190.3899999999999864
21
-83.9749999999999943
0
LINE
8
BLACK
6
CONTINUOUS
10
190.3899999999999864
20
-83.9749999999999943
11
190.3517319999999984
21
-83.9673879999999997
0
LINE
8
BLACK
6
CONTINUOUS
10
190.3517319999999984
20
-83.9673879999999997
11
190.3192889999999977
21
-83.9457110000000029
0
LINE
8
BLACK
6
CONTINUOUS
10
190.3192889999999977
20
-83.9457110000000029
11
190.2976119999999867
21
-83.9132680000000022
0
LINE
8
BLACK
6
CONTINUOUS
10
190.2976119999999867
20
-83.9132680000000022
11
190.289999999999992
21
-83.875
0
LINE
8
BLACK
6
CONTINUOUS
10
190.289999999999992
20
-83.875
11
190.289999999999992
21
-83.6749999999999972
0
LINE
8
BLACK
6
CONTINUOUS
10
190.289999999999992
20
-83.6749999999999972
11
190.2976119999999867
21
-83.636731999999995
0
LINE
8
BLACK
6
CONTINUOUS
10
190.2976119999999867
20
-83.636731999999995
11
190.3192889999999977
21
-83.6042889999999943
0
LINE
8
BLACK
6
CONTINUOUS
10
190.3192889999999977
20
-83.6042889999999943
11
190.3517319999999984
21
-83.5826119999999975
0
LINE
8
BLACK
6
CONTINUOUS
10
190.3517319999999984
20
-83.5826119999999975
11
190.3899999999999864
21
-83.5750000000000028
0
LINE
8
BLACK
6
CONTINUOUS
10
190.3899999999999864
20
-83.5750000000000028
11
191.664999999999992
21
-83.5750000000000028
0
LINE
8
BLACK
6
CONTINUOUS
10
191.664999999999992
20
-83.5750000000000028
11
191.70326799999998
21
-83.5826119999999975
0
LINE
8
BLACK
6
CONTINUOUS
10
197.4282680000000028
20
-83.5826119999999975
11
197.4607110000000034
21
-83.6042889999999943
0
LINE
8
BLACK
6
CONTINUOUS
10
197.4607110000000034
20
-83.6042889999999943
11
197.4823879999999861
21
-83.636731999999995
0
LINE
8
BLACK
6
CONTINUOUS
10
197.4823879999999861
20
-83.636731999999995
11
197.4899999999999807
21
-83.6749999999999972
0
LINE
8
BLACK
6
CONTINUOUS
10
197.4899999999999807
20
-83.6749999999999972
11
197.4899999999999807
21
-83.875
0
LINE
8
BLACK
6
CONTINUOUS
10
197.4899999999999807
20
-83.875
11
197.4823879999999861
21
-83.9132680000000022
0
LINE
8
BLACK
6
CONTINUOUS
10
197.4823879999999861
20
-83.9132680000000022
11
197.4607110000000034
21
-83.9457110000000029
0
LINE
8
BLACK
6
CONTINUOUS
10
197.4607110000000034
20
-83.9457110000000029
11
197.4282680000000028
21
-83.9673879999999997
0
LINE
8
BLACK
6
CONTINUOUS
10
197.4282680000000028
20
-83.9673879999999997
11
197.3899999999999864
21
-83.9749999999999943
0
LINE
8
BLACK
6
CONTINUOUS
10
197.3899999999999864
20
-83.9749999999999943
11
196.1149999999999807
21
-83.9749999999999943
0
LINE
8
BLACK
6
CONTINUOUS
10
196.1149999999999807
20
-83.9749999999999943
11
196.0767319999999927
21
-83.9673879999999997
0
LINE
8
BLACK
6
CONTINUOUS
10
196.0767319999999927
20
-83.9673879999999997
11
196.044288999999992
21
-83.9457110000000029
0
LINE
8
BLACK
6
CONTINUOUS
10
196.044288999999992
20
-83.9457110000000029
11
196.022611999999981
21
-83.9132680000000022
0
LINE
8
BLACK
6
CONTINUOUS
10
196.022611999999981
20
-83.9132680000000022
11
196.0149999999999864
21
-83.875
0
LINE
8
BLACK
6
CONTINUOUS
10
196.0149999999999864
20
-83.875
11
196.0149999999999864
21
-83.6749999999999972
0
LINE
8
BLACK
6
CONTINUOUS
10
196.0149999999999864
20
-83.6749999999999972
11
196.022611999999981
21
-83.636731999999995
0
LINE
8
BLACK
6
CONTINUOUS
10
196.022611999999981
20
-83.636731999999995
11
196.044288999999992
21
-83.6042889999999943
0
LINE
8
BLACK
6
CONTINUOUS
10
196.044288999999992
20
-83.6042889999999943
11
196.0767319999999927
21
-83.5826119999999975
0
LINE
8
BLACK
6
CONTINUOUS
10
196.0767319999999927
20
-83.5826119999999975
11
196.1149999999999807
21
-83.5750000000000028
0
LINE
8
BLACK
6
CONTINUOUS
10
196.1149999999999807
20
-83.5750000000000028
11
197.3899999999999864
21
-83.5750000000000028
0
LINE
8
BLACK
6
CONTINUOUS
10
197.3899999999999864
20
-83.5750000000000028
11
197.4282680000000028
21
-83.5826119999999975
0
LINE
8
BLACK
6
CONTINUOUS
10
191.70326799999998
20
-82.9326119999999918
11
191.7357109999999807
21
-82.9542890000000028
0
LINE
8
BLACK
6
CONTINUOUS
10
191.7357109999999807
20
-82.9542890000000028
11
191.7573879999999917
21
-82.9867319999999893
0
LINE
8
BLACK
6
CONTINUOUS
10
191.7573879999999917
20
-82.9867319999999893
11
191.7649999999999864
21
-83.0249999999999915
0
LINE
8
BLACK
6
CONTINUOUS
10
191.7649999999999864
20
-83.0249999999999915
11
191.7649999999999864
21
-83.2249999999999943
0
LINE
8
BLACK
6
CONTINUOUS
10
191.7649999999999864
20
-83.2249999999999943
11
191.7573879999999917
21
-83.2632679999999965
0
LINE
8
BLACK
6
CONTINUOUS
10
191.7573879999999917
20
-83.2632679999999965
11
191.7357109999999807
21
-83.2957109999999972
0
LINE
8
BLACK
6
CONTINUOUS
10
191.7357109999999807
20
-83.2957109999999972
11
191.70326799999998
21
-83.317387999999994
0
LINE
8
BLACK
6
CONTINUOUS
10
191.70326799999998
20
-83.317387999999994
11
191.664999999999992
21
-83.3250000000000028
0
LINE
8
BLACK
6
CONTINUOUS
10
191.664999999999992
20
-83.3250000000000028
11
190.3899999999999864
21
-83.3250000000000028
0
LINE
8
BLACK
6
CONTINUOUS
10
190.3899999999999864
20
-83.3250000000000028
11
190.3517319999999984
21
-83.317387999999994
0
LINE
8
BLACK
6
CONTINUOUS
10
190.3517319999999984
20
-83.317387999999994
11
190.3192889999999977
21
-83.2957109999999972
0
LINE
8
BLACK
6
CONTINUOUS
10
190.3192889999999977
20
-83.2957109999999972
11
190.2976119999999867
21
-83.2632679999999965
0
LINE
8
BLACK
6
CONTINUOUS
10
190.2976119999999867
20
-83.2632679999999965
11
190.289999999999992
21
-83.2249999999999943
0
LINE
8
BLACK
6
CONTINUOUS
10
190.289999999999992
20
-83.2249999999999943
11
190.289999999999992
21
-83.0249999999999915
0
LINE
8
BLACK
6
CONTINUOUS
10
190.289999999999992
20
-83.0249999999999915
11
190.2976119999999867
21
-82.9867319999999893
0
LINE
8
BLACK
6
CONTINUOUS
10
190.2976119999999867
20
-82.9867319999999893
11
190.3192889999999977
21
-82.9542890000000028
0
LINE
8
BLACK
6
CONTINUOUS
10
190.3192889999999977
20
-82.9542890000000028
11
190.3517319999999984
21
-82.9326119999999918
0
LINE
8
BLACK
6
CONTINUOUS
10
190.3517319999999984
20
-82.9326119999999918
11
190.3899999999999864
21
-82.9249999999999972
0
LINE
8
BLACK
6
CONTINUOUS
10
190.3899999999999864
20
-82.9249999999999972
11
191.664999999999992
21
-82.9249999999999972
0
LINE
8
BLACK
6
CONTINUOUS
10
191.664999999999992
20
-82.9249999999999972
11
191.70326799999998
21
-82.9326119999999918
0
LINE
8
BLACK
6
CONTINUOUS
10
197.4282680000000028
20
-82.9326119999999918
11
197.4607110000000034
21
-82.9542890000000028
0
LINE
8
BLACK
6
CONTINUOUS
10
197.4607110000000034
20
-82.9542890000000028
11
197.4823879999999861
21
-82.9867319999999893
0
LINE
8
BLACK
6
CONTINUOUS
10
197.4823879999999861
20
-82.9867319999999893
11
197.4899999999999807
21
-83.0249999999999915
0
LINE
8
BLACK
6
CONTINUOUS
10
197.4899999999999807
20
-83.0249999999999915
11
197.4899999999999807
21
-83.2249999999999943
0
LINE
8
BLACK
6
CONTINUOUS
10
197.4899999999999807
20
-83.2249999999999943
11
197.4823879999999861
21
-83.2632679999999965
0
LINE
8
BLACK
6
CONTINUOUS
10
197.4823879999999861
20
-83.2632679999999965
11
197.4607110000000034
21
-83.2957109999999972
0
LINE
8
BLACK
6
CONTINUOUS
10
197.4607110000000034
20
-83.2957109999999972
11
197.4282680000000028
21
-83.317387999999994
0
LINE
8
BLACK
6
CONTINUOUS
10
197.4282680000000028
20
-83.317387999999994
11
197.3899999999999864
21
-83.3250000000000028
0
LINE
8
BLACK
6
CONTINUOUS
10
197.3899999999999864
20
-83.3250000000000028
11
196.1149999999999807
21
-83.3250000000000028
0
LINE
8
BLACK
6
CONTINUOUS
10
196.1149999999999807
20
-83.3250000000000028
11
196.0767319999999927
21
-83.317387999999994
0
LINE
8
BLACK
6
CONTINUOUS
10
196.0767319999999927
20
-83.317387999999994
11
196.044288999999992
21
-83.2957109999999972
0
LINE
8
BLACK
6
CONTINUOUS
10
196.044288999999992
20
-83.2957109999999972
11
196.022611999999981
21
-83.2632679999999965
0
LINE
8
BLACK
6
CONTINUOUS
10
196.022611999999981
20
-83.2632679999999965
11
196.0149999999999864
21
-83.2249999999999943
0
LINE
8
BLACK
6
CONTINUOUS
10
196.0149999999999864
20
-83.2249999999999943
11
196.0149999999999864
21
-83.0249999999999915
0
LINE
8
BLACK
6
CONTINUOUS
10
196.0149999999999864
20
-83.0249999999999915
11
196.022611999999981
21
-82.9867319999999893
0
LINE
8
BLACK
6
CONTINUOUS
10
196.022611999999981
20
-82.9867319999999893
11
196.044288999999992
21
-82.9542890000000028
0
LINE
8
BLACK
6
CONTINUOUS
10
196.044288999999992
20
-82.9542890000000028
11
196.0767319999999927
21
-82.9326119999999918
0
LINE
8
BLACK
6
CONTINUOUS
10
196.0767319999999927
20
-82.9326119999999918
11
196.1149999999999807
21
-82.9249999999999972
0
LINE
8
BLACK
6
CONTINUOUS
10
196.1149999999999807
20
-82.9249999999999972
11
197.3899999999999864
21
-82.9249999999999972
0
LINE
8
BLACK
6
CONTINUOUS
10
197.3899999999999864
20
-82.9249999999999972
11
197.4282680000000028
21
-82.9326119999999918
0
LINE
8
BLACK
6
CONTINUOUS
10
129.1386650000000031
20
-83.3149980000000028
11
126.7926689999999894
21
-83.3149980000000028
0
LINE
8
BLACK
6
CONTINUOUS
10
126.7926689999999894
20
-83.3149980000000028
11
126.7926689999999894
21
-82.0850020000000029
0
LINE
8
BLACK
6
CONTINUOUS
10
126.7926689999999894
20
-82.0850020000000029
11
129.1386650000000031
21
-82.0850020000000029
0
LINE
8
BLACK
6
CONTINUOUS
10
129.1386650000000031
20
-82.0850020000000029
11
129.1386650000000031
21
-83.3149980000000028
0
LINE
8
BLACK
6
CONTINUOUS
10
149.1386650000000031
20
-83.3149980000000028
11
146.7926689999999894
21
-83.3149980000000028
0
LINE
8
BLACK
6
CONTINUOUS
10
146.7926689999999894
20
-83.3149980000000028
11
146.7926689999999894
21
-82.0850020000000029
0
LINE
8
BLACK
6
CONTINUOUS
10
146.7926689999999894
20
-82.0850020000000029
11
149.1386650000000031
21
-82.0850020000000029
0
LINE
8
BLACK
6
CONTINUOUS
10
149.1386650000000031
20
-82.0850020000000029
11
149.1386650000000031
21
-83.3149980000000028
0
LINE
8
BLACK
6
CONTINUOUS
10
169.1386650000000031
20
-83.3149980000000028
11
166.7926689999999894
21
-83.3149980000000028
0
LINE
8
BLACK
6
CONTINUOUS
10
166.7926689999999894
20
-83.3149980000000028
11
166.7926689999999894
21
-82.0850020000000029
0
LINE
8
BLACK
6
CONTINUOUS
10
166.7926689999999894
20
-82.0850020000000029
11
169.1386650000000031
21
-82.0850020000000029
0
LINE
8
BLACK
6
CONTINUOUS
10
169.1386650000000031
20
-82.0850020000000029
11
169.1386650000000031
21
-83.3149980000000028
0
LINE
8
BLACK
6
CONTINUOUS
10
125.5806669999999912
20
-82.9649999999999892
11
125.0156669999999934
21
-82.9649999999999892
0
LINE
8
BLACK
6
CONTINUOUS
10
125.0156669999999934
20
-82.9649999999999892
11
125.0156669999999934
21
-82.4350000000000023
0
LINE
8
BLACK
6
CONTINUOUS
10
125.0156669999999934
20
-82.4350000000000023
11
125.5806669999999912
21
-82.4350000000000023
0
LINE
8
BLACK
6
CONTINUOUS
10
125.5806669999999912
20
-82.4350000000000023
11
125.5806669999999912
21
-82.9649999999999892
0
LINE
8
BLACK
6
CONTINUOUS
10
130.9156669999999849
20
-82.9649999999999892
11
130.3506669999999872
21
-82.9649999999999892
0
LINE
8
BLACK
6
CONTINUOUS
10
130.3506669999999872
20
-82.9649999999999892
11
130.3506669999999872
21
-82.4350000000000023
0
LINE
8
BLACK
6
CONTINUOUS
10
130.3506669999999872
20
-82.4350000000000023
11
130.9156669999999849
21
-82.4350000000000023
0
LINE
8
BLACK
6
CONTINUOUS
10
130.9156669999999849
20
-82.4350000000000023
11
130.9156669999999849
21
-82.9649999999999892
0
LINE
8
BLACK
6
CONTINUOUS
10
145.5806670000000054
20
-82.9649999999999892
11
145.0156670000000076
21
-82.9649999999999892
0
LINE
8
BLACK
6
CONTINUOUS
10
145.0156670000000076
20
-82.9649999999999892
11
145.0156670000000076
21
-82.4350000000000023
0
LINE
8
BLACK
6
CONTINUOUS
10
145.0156670000000076
20
-82.4350000000000023
11
145.5806670000000054
21
-82.4350000000000023
0
LINE
8
BLACK
6
CONTINUOUS
10
145.5806670000000054
20
-82.4350000000000023
11
145.5806670000000054
21
-82.9649999999999892
0
LINE
8
BLACK
6
CONTINUOUS
10
150.9156669999999849
20
-82.9649999999999892
11
150.3506669999999872
21
-82.9649999999999892
0
LINE
8
BLACK
6
CONTINUOUS
10
150.3506669999999872
20
-82.9649999999999892
11
150.3506669999999872
21
-82.4350000000000023
0
LINE
8
BLACK
6
CONTINUOUS
10
150.3506669999999872
20
-82.4350000000000023
11
150.9156669999999849
21
-82.4350000000000023
0
LINE
8
BLACK
6
CONTINUOUS
10
150.9156669999999849
20
-82.4350000000000023
11
150.9156669999999849
21
-82.9649999999999892
0
LINE
8
BLACK
6
CONTINUOUS
10
165.5806670000000054
20
-82.9649999999999892
11
165.0156669999999792
21
-82.9649999999999892
0
LINE
8
BLACK
6
CONTINUOUS
10
165.0156669999999792
20
-82.9649999999999892
11
165.0156669999999792
21
-82.4350000000000023
0
LINE
8
BLACK
6
CONTINUOUS
10
165.0156669999999792
20
-82.4350000000000023
11
165.5806670000000054
21
-82.4350000000000023
0
LINE
8
BLACK
6
CONTINUOUS
10
165.5806670000000054
20
-82.4350000000000023
11
165.5806670000000054
21
-82.9649999999999892
0
LINE
8
BLACK
6
CONTINUOUS
10
170.9156669999999849
20
-82.9649999999999892
11
170.3506669999999872
21
-82.9649999999999892
0
LINE
8
BLACK
6
CONTINUOUS
10
170.3506669999999872
20
-82.9649999999999892
11
170.3506669999999872
21
-82.4350000000000023
0
LINE
8
BLACK
6
CONTINUOUS
10
170.3506669999999872
20
-82.4350000000000023
11
170.9156669999999849
21
-82.4350000000000023
0
LINE
8
BLACK
6
CONTINUOUS
10
170.9156669999999849
20
-82.4350000000000023
11
170.9156669999999849
21
-82.9649999999999892
0
LINE
8
BLACK
6
CONTINUOUS
10
191.70326799999998
20
-82.2826120000000003
11
191.7357109999999807
21
-82.3042889999999971
0
LINE
8
BLACK
6
CONTINUOUS
10
191.7357109999999807
20
-82.3042889999999971
11
191.7573879999999917
21
-82.3367319999999978
0
LINE
8
BLACK
6
CONTINUOUS
10
191.7573879999999917
20
-82.3367319999999978
11
191.7649999999999864
21
-82.375
0
LINE
8
BLACK
6
CONTINUOUS
10
191.7649999999999864
20
-82.375
11
191.7649999999999864
21
-82.5750000000000028
0
LINE
8
BLACK
6
CONTINUOUS
10
191.7649999999999864
20
-82.5750000000000028
11
191.7573879999999917
21
-82.6132679999999908
0
LINE
8
BLACK
6
CONTINUOUS
10
191.7573879999999917
20
-82.6132679999999908
11
191.7357109999999807
21
-82.6457109999999915
0
LINE
8
BLACK
6
CONTINUOUS
10
191.7357109999999807
20
-82.6457109999999915
11
191.70326799999998
21
-82.6673880000000025
0
LINE
8
BLACK
6
CONTINUOUS
10
191.70326799999998
20
-82.6673880000000025
11
191.664999999999992
21
-82.6749999999999972
0
LINE
8
BLACK
6
CONTINUOUS
10
191.664999999999992
20
-82.6749999999999972
11
190.3899999999999864
21
-82.6749999999999972
0
LINE
8
BLACK
6
CONTINUOUS
10
190.3899999999999864
20
-82.6749999999999972
11
190.3517319999999984
21
-82.6673880000000025
0
LINE
8
BLACK
6
CONTINUOUS
10
190.3517319999999984
20
-82.6673880000000025
11
190.3192889999999977
21
-82.6457109999999915
0
LINE
8
BLACK
6
CONTINUOUS
10
190.3192889999999977
20
-82.6457109999999915
11
190.2976119999999867
21
-82.6132679999999908
0
LINE
8
BLACK
6
CONTINUOUS
10
190.2976119999999867
20
-82.6132679999999908
11
190.289999999999992
21
-82.5750000000000028
0
LINE
8
BLACK
6
CONTINUOUS
10
190.289999999999992
20
-82.5750000000000028
11
190.289999999999992
21
-82.375
0
LINE
8
BLACK
6
CONTINUOUS
10
190.289999999999992
20
-82.375
11
190.2976119999999867
21
-82.3367319999999978
0
LINE
8
BLACK
6
CONTINUOUS
10
190.2976119999999867
20
-82.3367319999999978
11
190.3192889999999977
21
-82.3042889999999971
0
LINE
8
BLACK
6
CONTINUOUS
10
190.3192889999999977
20
-82.3042889999999971
11
190.3517319999999984
21
-82.2826120000000003
0
LINE
8
BLACK
6
CONTINUOUS
10
190.3517319999999984
20
-82.2826120000000003
11
190.3899999999999864
21
-82.2749999999999915
0
LINE
8
BLACK
6
CONTINUOUS
10
190.3899999999999864
20
-82.2749999999999915
11
191.664999999999992
21
-82.2749999999999915
0
LINE
8
BLACK
6
CONTINUOUS
10
191.664999999999992
20
-82.2749999999999915
11
191.70326799999998
21
-82.2826120000000003
0
LINE
8
BLACK
6
CONTINUOUS
10
197.4282680000000028
20
-82.2826120000000003
11
197.4607110000000034
21
-82.3042889999999971
0
LINE
8
BLACK
6
CONTINUOUS
10
197.4607110000000034
20
-82.3042889999999971
11
197.4823879999999861
21
-82.3367319999999978
0
LINE
8
BLACK
6
CONTINUOUS
10
197.4823879999999861
20
-82.3367319999999978
11
197.4899999999999807
21
-82.375
0
LINE
8
BLACK
6
CONTINUOUS
10
197.4899999999999807
20
-82.375
11
197.4899999999999807
21
-82.5750000000000028
0
LINE
8
BLACK
6
CONTINUOUS
10
197.4899999999999807
20
-82.5750000000000028
11
197.4823879999999861
21
-82.6132679999999908
0
LINE
8
BLACK
6
CONTINUOUS
10
197.4823879999999861
20
-82.6132679999999908
11
197.4607110000000034
21
-82.6457109999999915
0
LINE
8
BLACK
6
CONTINUOUS
10
197.4607110000000034
20
-82.6457109999999915
11
197.4282680000000028
21
-82.6673880000000025
0
LINE
8
BLACK
6
CONTINUOUS
10
197.4282680000000028
20
-82.6673880000000025
11
197.3899999999999864
21
-82.6749999999999972
0
LINE
8
BLACK
6
CONTINUOUS
10
197.3899999999999864
20
-82.6749999999999972
11
196.1149999999999807
21
-82.6749999999999972
0
LINE
8
BLACK
6
CONTINUOUS
10
196.1149999999999807
20
-82.6749999999999972
11
196.0767319999999927
21
-82.6673880000000025
0
LINE
8
BLACK
6
CONTINUOUS
10
196.0767319999999927
20
-82.6673880000000025
11
196.044288999999992
21
-82.6457109999999915
0
LINE
8
BLACK
6
CONTINUOUS
10
196.044288999999992
20
-82.6457109999999915
11
196.022611999999981
21
-82.6132679999999908
0
LINE
8
BLACK
6
CONTINUOUS
10
196.022611999999981
20
-82.6132679999999908
11
196.0149999999999864
21
-82.5750000000000028
0
LINE
8
BLACK
6
CONTINUOUS
10
196.0149999999999864
20
-82.5750000000000028
11
196.0149999999999864
21
-82.375
0
LINE
8
BLACK
6
CONTINUOUS
10
196.0149999999999864
20
-82.375
11
196.022611999999981
21
-82.3367319999999978
0
LINE
8
BLACK
6
CONTINUOUS
10
196.022611999999981
20
-82.3367319999999978
11
196.044288999999992
21
-82.3042889999999971
0
LINE
8
BLACK
6
CONTINUOUS
10
196.044288999999992
20
-82.3042889999999971
11
196.0767319999999927
21
-82.2826120000000003
0
LINE
8
BLACK
6
CONTINUOUS
10
196.0767319999999927
20
-82.2826120000000003
11
196.1149999999999807
21
-82.2749999999999915
0
LINE
8
BLACK
6
CONTINUOUS
10
196.1149999999999807
20
-82.2749999999999915
11
197.3899999999999864
21
-82.2749999999999915
0
LINE
8
BLACK
6
CONTINUOUS
10
197.3899999999999864
20
-82.2749999999999915
11
197.4282680000000028
21
-82.2826120000000003
0
LINE
8
BLACK
6
CONTINUOUS
10
191.70326799999998
20
-81.6326119999999946
11
191.7357109999999807
21
-81.6542889999999915
0
LINE
8
BLACK
6
CONTINUOUS
10
191.7357109999999807
20
-81.6542889999999915
11
191.7573879999999917
21
-81.6867319999999921
0
LINE
8
BLACK
6
CONTINUOUS
10
191.7573879999999917
20
-81.6867319999999921
11
191.7649999999999864
21
-81.7249999999999943
0
LINE
8
BLACK
6
CONTINUOUS
10
191.7649999999999864
20
-81.7249999999999943
11
191.7649999999999864
21
-81.9249999999999972
0
LINE
8
BLACK
6
CONTINUOUS
10
191.7649999999999864
20
-81.9249999999999972
11
191.7573879999999917
21
-81.9632679999999993
0
LINE
8
BLACK
6
CONTINUOUS
10
191.7573879999999917
20
-81.9632679999999993
11
191.7357109999999807
21
-81.995711
0
LINE
8
BLACK
6
CONTINUOUS
10
191.7357109999999807
20
-81.995711
11
191.70326799999998
21
-82.0173879999999969
0
LINE
8
BLACK
6
CONTINUOUS
10
191.70326799999998
20
-82.0173879999999969
11
191.664999999999992
21
-82.0249999999999915
0
LINE
8
BLACK
6
CONTINUOUS
10
191.664999999999992
20
-82.0249999999999915
11
190.3899999999999864
21
-82.0249999999999915
0
LINE
8
BLACK
6
CONTINUOUS
10
190.3899999999999864
20
-82.0249999999999915
11
190.3517319999999984
21
-82.0173879999999969
0
LINE
8
BLACK
6
CONTINUOUS
10
190.3517319999999984
20
-82.0173879999999969
11
190.3192889999999977
21
-81.995711
0
LINE
8
BLACK
6
CONTINUOUS
10
190.3192889999999977
20
-81.995711
11
190.2976119999999867
21
-81.9632679999999993
0
LINE
8
BLACK
6
CONTINUOUS
10
190.2976119999999867
20
-81.9632679999999993
11
190.289999999999992
21
-81.9249999999999972
0
LINE
8
BLACK
6
CONTINUOUS
10
190.289999999999992
20
-81.9249999999999972
11
190.289999999999992
21
-81.7249999999999943
0
LINE
8
BLACK
6
CONTINUOUS
10
190.289999999999992
20
-81.7249999999999943
11
190.2976119999999867
21
-81.6867319999999921
0
LINE
8
BLACK
6
CONTINUOUS
10
190.2976119999999867
20
-81.6867319999999921
11
190.3192889999999977
21
-81.6542889999999915
0
LINE
8
BLACK
6
CONTINUOUS
10
190.3192889999999977
20
-81.6542889999999915
11
190.3517319999999984
21
-81.6326119999999946
0
LINE
8
BLACK
6
CONTINUOUS
10
190.3517319999999984
20
-81.6326119999999946
11
190.3899999999999864
21
-81.625
0
LINE
8
BLACK
6
CONTINUOUS
10
190.3899999999999864
20
-81.625
11
191.664999999999992
21
-81.625
0
LINE
8
BLACK
6
CONTINUOUS
10
191.664999999999992
20
-81.625
11
191.70326799999998
21
-81.6326119999999946
0
LINE
8
BLACK
6
CONTINUOUS
10
197.4282680000000028
20
-81.6326119999999946
11
197.4607110000000034
21
-81.6542889999999915
0
LINE
8
BLACK
6
CONTINUOUS
10
197.4607110000000034
20
-81.6542889999999915
11
197.4823879999999861
21
-81.6867319999999921
0
LINE
8
BLACK
6
CONTINUOUS
10
197.4823879999999861
20
-81.6867319999999921
11
197.4899999999999807
21
-81.7249999999999943
0
LINE
8
BLACK
6
CONTINUOUS
10
197.4899999999999807
20
-81.7249999999999943
11
197.4899999999999807
21
-81.9249999999999972
0
LINE
8
BLACK
6
CONTINUOUS
10
197.4899999999999807
20
-81.9249999999999972
11
197.4823879999999861
21
-81.9632679999999993
0
LINE
8
BLACK
6
CONTINUOUS
10
197.4823879999999861
20
-81.9632679999999993
11
197.4607110000000034
21
-81.995711
0
LINE
8
BLACK
6
CONTINUOUS
10
197.4607110000000034
20
-81.995711
11
197.4282680000000028
21
-82.0173879999999969
0
LINE
8
BLACK
6
CONTINUOUS
10
197.4282680000000028
20
-82.0173879999999969
11
197.3899999999999864
21
-82.0249999999999915
0
LINE
8
BLACK
6
CONTINUOUS
10
197.3899999999999864
20
-82.0249999999999915
11
196.1149999999999807
21
-82.0249999999999915
0
LINE
8
BLACK
6
CONTINUOUS
10
196.1149999999999807
20
-82.0249999999999915
11
196.0767319999999927
21
-82.0173879999999969
0
LINE
8
BLACK
6
CONTINUOUS
10
196.0767319999999927
20
-82.0173879999999969
11
196.044288999999992
21
-81.995711
0
LINE
8
BLACK
6
CONTINUOUS
10
196.044288999999992
20
-81.995711
11
196.022611999999981
21
-81.9632679999999993
0
LINE
8
BLACK
6
CONTINUOUS
10
196.022611999999981
20
-81.9632679999999993
11
196.0149999999999864
21
-81.9249999999999972
0
LINE
8
BLACK
6
CONTINUOUS
10
196.0149999999999864
20
-81.9249999999999972
11
196.0149999999999864
21
-81.7249999999999943
0
LINE
8
BLACK
6
CONTINUOUS
10
196.0149999999999864
20
-81.7249999999999943
11
196.022611999999981
21
-81.6867319999999921
0
LINE
8
BLACK
6
CONTINUOUS
10
196.022611999999981
20
-81.6867319999999921
11
196.044288999999992
21
-81.6542889999999915
0
LINE
8
BLACK
6
CONTINUOUS
10
196.044288999999992
20
-81.6542889999999915
11
196.0767319999999927
21
-81.6326119999999946
0
LINE
8
BLACK
6
CONTINUOUS
10
196.0767319999999927
20
-81.6326119999999946
11
196.1149999999999807
21
-81.625
0
LINE
8
BLACK
6
CONTINUOUS
10
196.1149999999999807
20
-81.625
11
197.3899999999999864
21
-81.625
0
LINE
8
BLACK
6
CONTINUOUS
10
197.3899999999999864
20
-81.625
11
197.4282680000000028
21
-81.6326119999999946
0
LINE
8
BLACK
6
CONTINUOUS
10
125.9806659999999994
20
-81.9149989999999946
11
125.4506659999999982
21
-81.9149989999999946
0
LINE
8
BLACK
6
CONTINUOUS
10
125.4506659999999982
20
-81.9149989999999946
11
125.4506659999999982
21
-81.3699989999999929
0
LINE
8
BLACK
6
CONTINUOUS
10
125.4506659999999982
20
-81.3699989999999929
11
125.9806659999999994
21
-81.3699989999999929
0
LINE
8
BLACK
6
CONTINUOUS
10
125.9806659999999994
20
-81.3699989999999929
11
125.9806659999999994
21
-81.9149989999999946
0
LINE
8
BLACK
6
CONTINUOUS
10
126.7306669999999968
20
-81.9149989999999946
11
126.2006669999999957
21
-81.9149989999999946
0
LINE
8
BLACK
6
CONTINUOUS
10
126.2006669999999957
20
-81.9149989999999946
11
126.2006669999999957
21
-81.3699989999999929
0
LINE
8
BLACK
6
CONTINUOUS
10
126.2006669999999957
20
-81.3699989999999929
11
126.7306669999999968
21
-81.3699989999999929
0
LINE
8
BLACK
6
CONTINUOUS
10
126.7306669999999968
20
-81.3699989999999929
11
126.7306669999999968
21
-81.9149989999999946
0
LINE
8
BLACK
6
CONTINUOUS
10
127.4806659999999994
20
-81.9149989999999946
11
126.9506659999999982
21
-81.9149989999999946
0
LINE
8
BLACK
6
CONTINUOUS
10
126.9506659999999982
20
-81.9149989999999946
11
126.9506659999999982
21
-81.3699989999999929
0
LINE
8
BLACK
6
CONTINUOUS
10
126.9506659999999982
20
-81.3699989999999929
11
127.4806659999999994
21
-81.3699989999999929
0
LINE
8
BLACK
6
CONTINUOUS
10
127.4806659999999994
20
-81.3699989999999929
11
127.4806659999999994
21
-81.9149989999999946
0
LINE
8
BLACK
6
CONTINUOUS
10
128.2306669999999826
20
-81.9149989999999946
11
127.7006669999999957
21
-81.9149989999999946
0
LINE
8
BLACK
6
CONTINUOUS
10
127.7006669999999957
20
-81.9149989999999946
11
127.7006669999999957
21
-81.3699989999999929
0
LINE
8
BLACK
6
CONTINUOUS
10
127.7006669999999957
20
-81.3699989999999929
11
128.2306669999999826
21
-81.3699989999999929
0
LINE
8
BLACK
6
CONTINUOUS
10
128.2306669999999826
20
-81.3699989999999929
11
128.2306669999999826
21
-81.9149989999999946
0
LINE
8
BLACK
6
CONTINUOUS
10
128.9806679999999801
20
-81.9149989999999946
11
128.4506680000000074
21
-81.9149989999999946
0
LINE
8
BLACK
6
CONTINUOUS
10
128.4506680000000074
20
-81.9149989999999946
11
128.4506680000000074
21
-81.3699989999999929
0
LINE
8
BLACK
6
CONTINUOUS
10
128.4506680000000074
20
-81.3699989999999929
11
128.9806679999999801
21
-81.3699989999999929
0
LINE
8
BLACK
6
CONTINUOUS
10
128.9806679999999801
20
-81.3699989999999929
11
128.9806679999999801
21
-81.9149989999999946
0
LINE
8
BLACK
6
CONTINUOUS
10
129.7306669999999826
20
-81.9149989999999946
11
129.2006669999999815
21
-81.9149989999999946
0
LINE
8
BLACK
6
CONTINUOUS
10
129.2006669999999815
20
-81.9149989999999946
11
129.2006669999999815
21
-81.3699989999999929
0
LINE
8
BLACK
6
CONTINUOUS
10
129.2006669999999815
20
-81.3699989999999929
11
129.7306669999999826
21
-81.3699989999999929
0
LINE
8
BLACK
6
CONTINUOUS
10
129.7306669999999826
20
-81.3699989999999929
11
129.7306669999999826
21
-81.9149989999999946
0
LINE
8
BLACK
6
CONTINUOUS
10
130.4806679999999801
20
-81.9149989999999946
11
129.9506680000000074
21
-81.9149989999999946
0
LINE
8
BLACK
6
CONTINUOUS
10
129.9506680000000074
20
-81.9149989999999946
11
129.9506680000000074
21
-81.3699989999999929
0
LINE
8
BLACK
6
CONTINUOUS
10
129.9506680000000074
20
-81.3699989999999929
11
130.4806679999999801
21
-81.3699989999999929
0
LINE
8
BLACK
6
CONTINUOUS
10
130.4806679999999801
20
-81.3699989999999929
11
130.4806679999999801
21
-81.9149989999999946
0
LINE
8
BLACK
6
CONTINUOUS
10
145.9806659999999852
20
-81.9149989999999946
11
145.450665999999984
21
-81.9149989999999946
0
LINE
8
BLACK
6
CONTINUOUS
10
145.450665999999984
20
-81.9149989999999946
11
145.450665999999984
21
-81.3699989999999929
0
LINE
8
BLACK
6
CONTINUOUS
10
145.450665999999984
20
-81.3699989999999929
11
145.9806659999999852
21
-81.3699989999999929
0
LINE
8
BLACK
6
CONTINUOUS
10
145.9806659999999852
20
-81.3699989999999929
11
145.9806659999999852
21
-81.9149989999999946
0
LINE
8
BLACK
6
CONTINUOUS
10
146.7306669999999826
20
-81.9149989999999946
11
146.2006669999999815
21
-81.9149989999999946
0
LINE
8
BLACK
6
CONTINUOUS
10
146.2006669999999815
20
-81.9149989999999946
11
146.2006669999999815
21
-81.3699989999999929
0
LINE
8
BLACK
6
CONTINUOUS
10
146.2006669999999815
20
-81.3699989999999929
11
146.7306669999999826
21
-81.3699989999999929
0
LINE
8
BLACK
6
CONTINUOUS
10
146.7306669999999826
20
-81.3699989999999929
11
146.7306669999999826
21
-81.9149989999999946
0
LINE
8
BLACK
6
CONTINUOUS
10
147.4806659999999852
20
-81.9149989999999946
11
146.950665999999984
21
-81.9149989999999946
0
LINE
8
BLACK
6
CONTINUOUS
10
146.950665999999984
20
-81.9149989999999946
11
146.950665999999984
21
-81.3699989999999929
0
LINE
8
BLACK
6
CONTINUOUS
10
146.950665999999984
20
-81.3699989999999929
11
147.4806659999999852
21
-81.3699989999999929
0
LINE
8
BLACK
6
CONTINUOUS
10
147.4806659999999852
20
-81.3699989999999929
11
147.4806659999999852
21
-81.9149989999999946
0
LINE
8
BLACK
6
CONTINUOUS
10
148.2306669999999826
20
-81.9149989999999946
11
147.7006669999999815
21
-81.9149989999999946
0
LINE
8
BLACK
6
CONTINUOUS
10
147.7006669999999815
20
-81.9149989999999946
11
147.7006669999999815
21
-81.3699989999999929
0
LINE
8
BLACK
6
CONTINUOUS
10
147.7006669999999815
20
-81.3699989999999929
11
148.2306669999999826
21
-81.3699989999999929
0
LINE
8
BLACK
6
CONTINUOUS
10
148.2306669999999826
20
-81.3699989999999929
11
148.2306669999999826
21
-81.9149989999999946
0
LINE
8
BLACK
6
CONTINUOUS
10
148.9806679999999801
20
-81.9149989999999946
11
148.4506680000000074
21
-81.9149989999999946
0
LINE
8
BLACK
6
CONTINUOUS
10
148.4506680000000074
20
-81.9149989999999946
11
148.4506680000000074
21
-81.3699989999999929
0
LINE
8
BLACK
6
CONTINUOUS
10
148.4506680000000074
20
-81.3699989999999929
11
148.9806679999999801
21
-81.3699989999999929
0
LINE
8
BLACK
6
CONTINUOUS
10
148.9806679999999801
20
-81.3699989999999929
11
148.9806679999999801
21
-81.9149989999999946
0
LINE
8
BLACK
6
CONTINUOUS
10
149.7306669999999826
20
-81.9149989999999946
11
149.2006669999999815
21
-81.9149989999999946
0
LINE
8
BLACK
6
CONTINUOUS
10
149.2006669999999815
20
-81.9149989999999946
11
149.2006669999999815
21
-81.3699989999999929
0
LINE
8
BLACK
6
CONTINUOUS
10
149.2006669999999815
20
-81.3699989999999929
11
149.7306669999999826
21
-81.3699989999999929
0
LINE
8
BLACK
6
CONTINUOUS
10
149.7306669999999826
20
-81.3699989999999929
11
149.7306669999999826
21
-81.9149989999999946
0
LINE
8
BLACK
6
CONTINUOUS
10
150.4806679999999801
20
-81.9149989999999946
11
149.9506680000000074
21
-81.9149989999999946
0
LINE
8
BLACK
6
CONTINUOUS
10
149.9506680000000074
20
-81.9149989999999946
11
149.9506680000000074
21
-81.3699989999999929
0
LINE
8
BLACK
6
CONTINUOUS
10
149.9506680000000074
20
-81.3699989999999929
11
150.4806679999999801
21
-81.3699989999999929
0
LINE
8
BLACK
6
CONTINUOUS
10
150.4806679999999801
20
-81.3699989999999929
11
150.4806679999999801
21
-81.9149989999999946
0
LINE
8
BLACK
6
CONTINUOUS
10
165.9806659999999852
20
-81.9149989999999946
11
165.450665999999984
21
-81.9149989999999946
0
LINE
8
BLACK
6
CONTINUOUS
10
165.450665999999984
20
-81.9149989999999946
11
165.450665999999984
21
-81.3699989999999929
0
LINE
8
BLACK
6
CONTINUOUS
10
165.450665999999984
20
-81.3699989999999929
11
165.9806659999999852
21
-81.3699989999999929
0
LINE
8
BLACK
6
CONTINUOUS
10
165.9806659999999852
20
-81.3699989999999929
11
165.9806659999999852
21
-81.9149989999999946
0
LINE
8
BLACK
6
CONTINUOUS
10
166.7306669999999826
20
-81.9149989999999946
11
166.2006669999999815
21
-81.9149989999999946
0
LINE
8
BLACK
6
CONTINUOUS
10
166.2006669999999815
20
-81.9149989999999946
11
166.2006669999999815
21
-81.3699989999999929
0
LINE
8
BLACK
6
CONTINUOUS
10
166.2006669999999815
20
-81.3699989999999929
11
166.7306669999999826
21
-81.3699989999999929
0
LINE
8
BLACK
6
CONTINUOUS
10
166.7306669999999826
20
-81.3699989999999929
11
166.7306669999999826
21
-81.9149989999999946
0
LINE
8
BLACK
6
CONTINUOUS
10
167.4806659999999852
20
-81.9149989999999946
11
166.950665999999984
21
-81.9149989999999946
0
LINE
8
BLACK
6
CONTINUOUS
10
166.950665999999984
20
-81.9149989999999946
11
166.950665999999984
21
-81.3699989999999929
0
LINE
8
BLACK
6
CONTINUOUS
10
166.950665999999984
20
-81.3699989999999929
11
167.4806659999999852
21
-81.3699989999999929
0
LINE
8
BLACK
6
CONTINUOUS
10
167.4806659999999852
20
-81.3699989999999929
11
167.4806659999999852
21
-81.9149989999999946
0
LINE
8
BLACK
6
CONTINUOUS
10
168.2306669999999826
20
-81.9149989999999946
11
167.7006669999999815
21
-81.9149989999999946
0
LINE
8
BLACK
6
CONTINUOUS
10
167.7006669999999815
20
-81.9149989999999946
11
167.7006669999999815
21
-81.3699989999999929
0
LINE
8
BLACK
6
CONTINUOUS
10
167.7006669999999815
20
-81.3699989999999929
11
168.2306669999999826
21
-81.3699989999999929
0
LINE
8
BLACK
6
CONTINUOUS
10
168.2306669999999826
20
-81.3699989999999929
11
168.2306669999999826
21
-81.9149989999999946
0
LINE
8
BLACK
6
CONTINUOUS
10
168.9806679999999801
20
-81.9149989999999946
11
168.450667999999979
21
-81.9149989999999946
0
LINE
8
BLACK
6
CONTINUOUS
10
168.450667999999979
20
-81.9149989999999946
11
168.450667999999979
21
-81.3699989999999929
0
LINE
8
BLACK
6
CONTINUOUS
10
168.450667999999979
20
-81.3699989999999929
11
168.9806679999999801
21
-81.3699989999999929
0
LINE
8
BLACK
6
CONTINUOUS
10
168.9806679999999801
20
-81.3699989999999929
11
168.9806679999999801
21
-81.9149989999999946
0
LINE
8
BLACK
6
CONTINUOUS
10
169.7306669999999826
20
-81.9149989999999946
11
169.2006669999999815
21
-81.9149989999999946
0
LINE
8
BLACK
6
CONTINUOUS
10
169.2006669999999815
20
-81.9149989999999946
11
169.2006669999999815
21
-81.3699989999999929
0
LINE
8
BLACK
6
CONTINUOUS
10
169.2006669999999815
20
-81.3699989999999929
11
169.7306669999999826
21
-81.3699989999999929
0
LINE
8
BLACK
6
CONTINUOUS
10
169.7306669999999826
20
-81.3699989999999929
11
169.7306669999999826
21
-81.9149989999999946
0
LINE
8
BLACK
6
CONTINUOUS
10
170.4806679999999801
20
-81.9149989999999946
11
169.950667999999979
21
-81.9149989999999946
0
LINE
8
BLACK
6
CONTINUOUS
10
169.950667999999979
20
-81.9149989999999946
11
169.950667999999979
21
-81.3699989999999929
0
LINE
8
BLACK
6
CONTINUOUS
10
169.950667999999979
20
-81.3699989999999929
11
170.4806679999999801
21
-81.3699989999999929
0
LINE
8
BLACK
6
CONTINUOUS
10
170.4806679999999801
20
-81.3699989999999929
11
170.4806679999999801
21
-81.9149989999999946
0
LINE
8
BLACK
6
CONTINUOUS
10
191.70326799999998
20
-80.9826120000000031
11
191.7357109999999807
21
-81.004289
0
LINE
8
BLACK
6
CONTINUOUS
10
191.7357109999999807
20
-81.004289
11
191.7573879999999917
21
-81.0367320000000007
0
LINE
8
BLACK
6
CONTINUOUS
10
191.7573879999999917
20
-81.0367320000000007
11
191.7649999999999864
21
-81.0750000000000028
0
LINE
8
BLACK
6
CONTINUOUS
10
191.7649999999999864
20
-81.0750000000000028
11
191.7649999999999864
21
-81.2749999999999915
0
LINE
8
BLACK
6
CONTINUOUS
10
191.7649999999999864
20
-81.2749999999999915
11
191.7573879999999917
21
-81.3132679999999937
0
LINE
8
BLACK
6
CONTINUOUS
10
191.7573879999999917
20
-81.3132679999999937
11
191.7357109999999807
21
-81.3457109999999943
0
LINE
8
BLACK
6
CONTINUOUS
10
191.7357109999999807
20
-81.3457109999999943
11
191.70326799999998
21
-81.3673879999999912
0
LINE
8
BLACK
6
CONTINUOUS
10
191.70326799999998
20
-81.3673879999999912
11
191.664999999999992
21
-81.375
0
LINE
8
BLACK
6
CONTINUOUS
10
191.664999999999992
20
-81.375
11
190.3899999999999864
21
-81.375
0
LINE
8
BLACK
6
CONTINUOUS
10
190.3899999999999864
20
-81.375
11
190.3517319999999984
21
-81.3673879999999912
0
LINE
8
BLACK
6
CONTINUOUS
10
190.3517319999999984
20
-81.3673879999999912
11
190.3192889999999977
21
-81.3457109999999943
0
LINE
8
BLACK
6
CONTINUOUS
10
190.3192889999999977
20
-81.3457109999999943
11
190.2976119999999867
21
-81.3132679999999937
0
LINE
8
BLACK
6
CONTINUOUS
10
190.2976119999999867
20
-81.3132679999999937
11
190.289999999999992
21
-81.2749999999999915
0
LINE
8
BLACK
6
CONTINUOUS
10
190.289999999999992
20
-81.2749999999999915
11
190.289999999999992
21
-81.0750000000000028
0
LINE
8
BLACK
6
CONTINUOUS
10
190.289999999999992
20
-81.0750000000000028
11
190.2976119999999867
21
-81.0367320000000007
0
LINE
8
BLACK
6
CONTINUOUS
10
190.2976119999999867
20
-81.0367320000000007
11
190.3192889999999977
21
-81.004289
0
LINE
8
BLACK
6
CONTINUOUS
10
190.3192889999999977
20
-81.004289
11
190.3517319999999984
21
-80.9826120000000031
0
LINE
8
BLACK
6
CONTINUOUS
10
190.3517319999999984
20
-80.9826120000000031
11
190.3899999999999864
21
-80.9749999999999943
0
LINE
8
BLACK
6
CONTINUOUS
10
190.3899999999999864
20
-80.9749999999999943
11
191.664999999999992
21
-80.9749999999999943
0
LINE
8
BLACK
6
CONTINUOUS
10
191.664999999999992
20
-80.9749999999999943
11
191.70326799999998
21
-80.9826120000000031
0
LINE
8
BLACK
6
CONTINUOUS
10
197.4282680000000028
20
-80.9826120000000031
11
197.4607110000000034
21
-81.004289
0
LINE
8
BLACK
6
CONTINUOUS
10
197.4607110000000034
20
-81.004289
11
197.4823879999999861
21
-81.0367320000000007
0
LINE
8
BLACK
6
CONTINUOUS
10
197.4823879999999861
20
-81.0367320000000007
11
197.4899999999999807
21
-81.0750000000000028
0
LINE
8
BLACK
6
CONTINUOUS
10
197.4899999999999807
20
-81.0750000000000028
11
197.4899999999999807
21
-81.2749999999999915
0
LINE
8
BLACK
6
CONTINUOUS
10
197.4899999999999807
20
-81.2749999999999915
11
197.4823879999999861
21
-81.3132679999999937
0
LINE
8
BLACK
6
CONTINUOUS
10
197.4823879999999861
20
-81.3132679999999937
11
197.4607110000000034
21
-81.3457109999999943
0
LINE
8
BLACK
6
CONTINUOUS
10
197.4607110000000034
20
-81.3457109999999943
11
197.4282680000000028
21
-81.3673879999999912
0
LINE
8
BLACK
6
CONTINUOUS
10
197.4282680000000028
20
-81.3673879999999912
11
197.3899999999999864
21
-81.375
0
LINE
8
BLACK
6
CONTINUOUS
10
197.3899999999999864
20
-81.375
11
196.1149999999999807
21
-81.375
0
LINE
8
BLACK
6
CONTINUOUS
10
196.1149999999999807
20
-81.375
11
196.0767319999999927
21
-81.3673879999999912
0
LINE
8
BLACK
6
CONTINUOUS
10
196.0767319999999927
20
-81.3673879999999912
11
196.044288999999992
21
-81.3457109999999943
0
LINE
8
BLACK
6
CONTINUOUS
10
196.044288999999992
20
-81.3457109999999943
11
196.022611999999981
21
-81.3132679999999937
0
LINE
8
BLACK
6
CONTINUOUS
10
196.022611999999981
20
-81.3132679999999937
11
196.0149999999999864
21
-81.2749999999999915
0
LINE
8
BLACK
6
CONTINUOUS
10
196.0149999999999864
20
-81.2749999999999915
11
196.0149999999999864
21
-81.0750000000000028
0
LINE
8
BLACK
6
CONTINUOUS
10
196.0149999999999864
20
-81.0750000000000028
11
196.022611999999981
21
-81.0367320000000007
0
LINE
8
BLACK
6
CONTINUOUS
10
196.022611999999981
20
-81.0367320000000007
11
196.044288999999992
21
-81.004289
0
LINE
8
BLACK
6
CONTINUOUS
10
196.044288999999992
20
-81.004289
11
196.0767319999999927
21
-80.9826120000000031
0
LINE
8
BLACK
6
CONTINUOUS
10
196.0767319999999927
20
-80.9826120000000031
11
196.1149999999999807
21
-80.9749999999999943
0
LINE
8
BLACK
6
CONTINUOUS
10
196.1149999999999807
20
-80.9749999999999943
11
197.3899999999999864
21
-80.9749999999999943
0
LINE
8
BLACK
6
CONTINUOUS
10
197.3899999999999864
20
-80.9749999999999943
11
197.4282680000000028
21
-80.9826120000000031
0
LINE
8
BLACK
6
CONTINUOUS
10
191.70326799999998
20
-80.3326119999999975
11
191.7357109999999807
21
-80.3542889999999943
0
LINE
8
BLACK
6
CONTINUOUS
10
191.7357109999999807
20
-80.3542889999999943
11
191.7573879999999917
21
-80.386731999999995
0
LINE
8
BLACK
6
CONTINUOUS
10
191.7573879999999917
20
-80.386731999999995
11
191.7649999999999864
21
-80.4249999999999972
0
LINE
8
BLACK
6
CONTINUOUS
10
191.7649999999999864
20
-80.4249999999999972
11
191.7649999999999864
21
-80.625
0
LINE
8
BLACK
6
CONTINUOUS
10
191.7649999999999864
20
-80.625
11
191.7573879999999917
21
-80.6632680000000022
0
LINE
8
BLACK
6
CONTINUOUS
10
191.7573879999999917
20
-80.6632680000000022
11
191.7357109999999807
21
-80.6957110000000029
0
LINE
8
BLACK
6
CONTINUOUS
10
191.7357109999999807
20
-80.6957110000000029
11
191.70326799999998
21
-80.7173879999999997
0
LINE
8
BLACK
6
CONTINUOUS
10
191.70326799999998
20
-80.7173879999999997
11
191.664999999999992
21
-80.7249999999999943
0
LINE
8
BLACK
6
CONTINUOUS
10
191.664999999999992
20
-80.7249999999999943
11
190.3899999999999864
21
-80.7249999999999943
0
LINE
8
BLACK
6
CONTINUOUS
10
190.3899999999999864
20
-80.7249999999999943
11
190.3517319999999984
21
-80.7173879999999997
0
LINE
8
BLACK
6
CONTINUOUS
10
190.3517319999999984
20
-80.7173879999999997
11
190.3192889999999977
21
-80.6957110000000029
0
LINE
8
BLACK
6
CONTINUOUS
10
190.3192889999999977
20
-80.6957110000000029
11
190.2976119999999867
21
-80.6632680000000022
0
LINE
8
BLACK
6
CONTINUOUS
10
190.2976119999999867
20
-80.6632680000000022
11
190.289999999999992
21
-80.625
0
LINE
8
BLACK
6
CONTINUOUS
10
190.289999999999992
20
-80.625
11
190.289999999999992
21
-80.4249999999999972
0
LINE
8
BLACK
6
CONTINUOUS
10
190.289999999999992
20
-80.4249999999999972
11
190.2976119999999867
21
-80.386731999999995
0
LINE
8
BLACK
6
CONTINUOUS
10
190.2976119999999867
20
-80.386731999999995
11
190.3192889999999977
21
-80.3542889999999943
0
LINE
8
BLACK
6
CONTINUOUS
10
190.3192889999999977
20
-80.3542889999999943
11
190.3517319999999984
21
-80.3326119999999975
0
LINE
8
BLACK
6
CONTINUOUS
10
190.3517319999999984
20
-80.3326119999999975
11
190.3899999999999864
21
-80.3250000000000028
0
LINE
8
BLACK
6
CONTINUOUS
10
190.3899999999999864
20
-80.3250000000000028
11
191.664999999999992
21
-80.3250000000000028
0
LINE
8
BLACK
6
CONTINUOUS
10
191.664999999999992
20
-80.3250000000000028
11
191.70326799999998
21
-80.3326119999999975
0
LINE
8
BLACK
6
CONTINUOUS
10
197.4282680000000028
20
-80.3326119999999975
11
197.4607110000000034
21
-80.3542889999999943
0
LINE
8
BLACK
6
CONTINUOUS
10
197.4607110000000034
20
-80.3542889999999943
11
197.4823879999999861
21
-80.386731999999995
0
LINE
8
BLACK
6
CONTINUOUS
10
197.4823879999999861
20
-80.386731999999995
11
197.4899999999999807
21
-80.4249999999999972
0
LINE
8
BLACK
6
CONTINUOUS
10
197.4899999999999807
20
-80.4249999999999972
11
197.4899999999999807
21
-80.625
0
LINE
8
BLACK
6
CONTINUOUS
10
197.4899999999999807
20
-80.625
11
197.4823879999999861
21
-80.6632680000000022
0
LINE
8
BLACK
6
CONTINUOUS
10
197.4823879999999861
20
-80.6632680000000022
11
197.4607110000000034
21
-80.6957110000000029
0
LINE
8
BLACK
6
CONTINUOUS
10
197.4607110000000034
20
-80.6957110000000029
11
197.4282680000000028
21
-80.7173879999999997
0
LINE
8
BLACK
6
CONTINUOUS
10
197.4282680000000028
20
-80.7173879999999997
11
197.3899999999999864
21
-80.7249999999999943
0
LINE
8
BLACK
6
CONTINUOUS
10
197.3899999999999864
20
-80.7249999999999943
11
196.1149999999999807
21
-80.7249999999999943
0
LINE
8
BLACK
6
CONTINUOUS
10
196.1149999999999807
20
-80.7249999999999943
11
196.0767319999999927
21
-80.7173879999999997
0
LINE
8
BLACK
6
CONTINUOUS
10
196.0767319999999927
20
-80.7173879999999997
11
196.044288999999992
21
-80.6957110000000029
0
LINE
8
BLACK
6
CONTINUOUS
10
196.044288999999992
20
-80.6957110000000029
11
196.022611999999981
21
-80.6632680000000022
0
LINE
8
BLACK
6
CONTINUOUS
10
196.022611999999981
20
-80.6632680000000022
11
196.0149999999999864
21
-80.625
0
LINE
8
BLACK
6
CONTINUOUS
10
196.0149999999999864
20
-80.625
11
196.0149999999999864
21
-80.4249999999999972
0
LINE
8
BLACK
6
CONTINUOUS
10
196.0149999999999864
20
-80.4249999999999972
11
196.022611999999981
21
-80.386731999999995
0
LINE
8
BLACK
6
CONTINUOUS
10
196.022611999999981
20
-80.386731999999995
11
196.044288999999992
21
-80.3542889999999943
0
LINE
8
BLACK
6
CONTINUOUS
10
196.044288999999992
20
-80.3542889999999943
11
196.0767319999999927
21
-80.3326119999999975
0
LINE
8
BLACK
6
CONTINUOUS
10
196.0767319999999927
20
-80.3326119999999975
11
196.1149999999999807
21
-80.3250000000000028
0
LINE
8
BLACK
6
CONTINUOUS
10
196.1149999999999807
20
-80.3250000000000028
11
197.3899999999999864
21
-80.3250000000000028
0
LINE
8
BLACK
6
CONTINUOUS
10
197.3899999999999864
20
-80.3250000000000028
11
197.4282680000000028
21
-80.3326119999999975
0
LINE
8
BLACK
6
CONTINUOUS
10
191.70326799999998
20
-79.6826119999999918
11
191.7357109999999807
21
-79.7042890000000028
0
LINE
8
BLACK
6
CONTINUOUS
10
191.7357109999999807
20
-79.7042890000000028
11
191.7573879999999917
21
-79.7367320000000035
0
LINE
8
BLACK
6
CONTINUOUS
10
191.7573879999999917
20
-79.7367320000000035
11
191.7649999999999864
21
-79.7749999999999915
0
LINE
8
BLACK
6
CONTINUOUS
10
191.7649999999999864
20
-79.7749999999999915
11
191.7649999999999864
21
-79.9749999999999943
0
LINE
8
BLACK
6
CONTINUOUS
10
191.7649999999999864
20
-79.9749999999999943
11
191.7573879999999917
21
-80.0132679999999965
0
LINE
8
BLACK
6
CONTINUOUS
10
191.7573879999999917
20
-80.0132679999999965
11
191.7357109999999807
21
-80.0457109999999972
0
LINE
8
BLACK
6
CONTINUOUS
10
191.7357109999999807
20
-80.0457109999999972
11
191.70326799999998
21
-80.067387999999994
0
LINE
8
BLACK
6
CONTINUOUS
10
191.70326799999998
20
-80.067387999999994
11
191.664999999999992
21
-80.0750000000000028
0
LINE
8
BLACK
6
CONTINUOUS
10
191.664999999999992
20
-80.0750000000000028
11
190.3899999999999864
21
-80.0750000000000028
0
LINE
8
BLACK
6
CONTINUOUS
10
190.3899999999999864
20
-80.0750000000000028
11
190.3517319999999984
21
-80.067387999999994
0
LINE
8
BLACK
6
CONTINUOUS
10
190.3517319999999984
20
-80.067387999999994
11
190.3192889999999977
21
-80.0457109999999972
0
LINE
8
BLACK
6
CONTINUOUS
10
190.3192889999999977
20
-80.0457109999999972
11
190.2976119999999867
21
-80.0132679999999965
0
LINE
8
BLACK
6
CONTINUOUS
10
190.2976119999999867
20
-80.0132679999999965
11
190.289999999999992
21
-79.9749999999999943
0
LINE
8
BLACK
6
CONTINUOUS
10
190.289999999999992
20
-79.9749999999999943
11
190.289999999999992
21
-79.7749999999999915
0
LINE
8
BLACK
6
CONTINUOUS
10
190.289999999999992
20
-79.7749999999999915
11
190.2976119999999867
21
-79.7367320000000035
0
LINE
8
BLACK
6
CONTINUOUS
10
190.2976119999999867
20
-79.7367320000000035
11
190.3192889999999977
21
-79.7042890000000028
0
LINE
8
BLACK
6
CONTINUOUS
10
190.3192889999999977
20
-79.7042890000000028
11
190.3517319999999984
21
-79.6826119999999918
0
LINE
8
BLACK
6
CONTINUOUS
10
190.3517319999999984
20
-79.6826119999999918
11
190.3899999999999864
21
-79.6749999999999972
0
LINE
8
BLACK
6
CONTINUOUS
10
190.3899999999999864
20
-79.6749999999999972
11
191.664999999999992
21
-79.6749999999999972
0
LINE
8
BLACK
6
CONTINUOUS
10
191.664999999999992
20
-79.6749999999999972
11
191.70326799999998
21
-79.6826119999999918
0
LINE
8
BLACK
6
CONTINUOUS
10
197.4282680000000028
20
-79.6826119999999918
11
197.4607110000000034
21
-79.7042890000000028
0
LINE
8
BLACK
6
CONTINUOUS
10
197.4607110000000034
20
-79.7042890000000028
11
197.4823879999999861
21
-79.7367320000000035
0
LINE
8
BLACK
6
CONTINUOUS
10
197.4823879999999861
20
-79.7367320000000035
11
197.4899999999999807
21
-79.7749999999999915
0
LINE
8
BLACK
6
CONTINUOUS
10
197.4899999999999807
20
-79.7749999999999915
11
197.4899999999999807
21
-79.9749999999999943
0
LINE
8
BLACK
6
CONTINUOUS
10
197.4899999999999807
20
-79.9749999999999943
11
197.4823879999999861
21
-80.0132679999999965
0
LINE
8
BLACK
6
CONTINUOUS
10
197.4823879999999861
20
-80.0132679999999965
11
197.4607110000000034
21
-80.0457109999999972
0
LINE
8
BLACK
6
CONTINUOUS
10
197.4607110000000034
20
-80.0457109999999972
11
197.4282680000000028
21
-80.067387999999994
0
LINE
8
BLACK
6
CONTINUOUS
10
197.4282680000000028
20
-80.067387999999994
11
197.3899999999999864
21
-80.0750000000000028
0
LINE
8
BLACK
6
CONTINUOUS
10
197.3899999999999864
20
-80.0750000000000028
11
196.1149999999999807
21
-80.0750000000000028
0
LINE
8
BLACK
6
CONTINUOUS
10
196.1149999999999807
20
-80.0750000000000028
11
196.0767319999999927
21
-80.067387999999994
0
LINE
8
BLACK
6
CONTINUOUS
10
196.0767319999999927
20
-80.067387999999994
11
196.044288999999992
21
-80.0457109999999972
0
LINE
8
BLACK
6
CONTINUOUS
10
196.044288999999992
20
-80.0457109999999972
11
196.022611999999981
21
-80.0132679999999965
0
LINE
8
BLACK
6
CONTINUOUS
10
196.022611999999981
20
-80.0132679999999965
11
196.0149999999999864
21
-79.9749999999999943
0
LINE
8
BLACK
6
CONTINUOUS
10
196.0149999999999864
20
-79.9749999999999943
11
196.0149999999999864
21
-79.7749999999999915
0
LINE
8
BLACK
6
CONTINUOUS
10
196.0149999999999864
20
-79.7749999999999915
11
196.022611999999981
21
-79.7367320000000035
0
LINE
8
BLACK
6
CONTINUOUS
10
196.022611999999981
20
-79.7367320000000035
11
196.044288999999992
21
-79.7042890000000028
0
LINE
8
BLACK
6
CONTINUOUS
10
196.044288999999992
20
-79.7042890000000028
11
196.0767319999999927
21
-79.6826119999999918
0
LINE
8
BLACK
6
CONTINUOUS
10
196.0767319999999927
20
-79.6826119999999918
11
196.1149999999999807
21
-79.6749999999999972
0
LINE
8
BLACK
6
CONTINUOUS
10
196.1149999999999807
20
-79.6749999999999972
11
197.3899999999999864
21
-79.6749999999999972
0
LINE
8
BLACK
6
CONTINUOUS
10
197.3899999999999864
20
-79.6749999999999972
11
197.4282680000000028
21
-79.6826119999999918
0
LINE
8
BLACK
6
CONTINUOUS
10
191.70326799999998
20
-79.0326120000000003
11
191.7357109999999807
21
-79.0542889999999971
0
LINE
8
BLACK
6
CONTINUOUS
10
191.7357109999999807
20
-79.0542889999999971
11
191.7573879999999917
21
-79.0867319999999978
0
LINE
8
BLACK
6
CONTINUOUS
10
191.7573879999999917
20
-79.0867319999999978
11
191.7649999999999864
21
-79.125
0
LINE
8
BLACK
6
CONTINUOUS
10
191.7649999999999864
20
-79.125
11
191.7649999999999864
21
-79.3250000000000028
0
LINE
8
BLACK
6
CONTINUOUS
10
191.7649999999999864
20
-79.3250000000000028
11
191.7573879999999917
21
-79.3632679999999908
0
LINE
8
BLACK
6
CONTINUOUS
10
191.7573879999999917
20
-79.3632679999999908
11
191.7357109999999807
21
-79.3957109999999915
0
LINE
8
BLACK
6
CONTINUOUS
10
191.7357109999999807
20
-79.3957109999999915
11
191.70326799999998
21
-79.4173880000000025
0
LINE
8
BLACK
6
CONTINUOUS
10
191.70326799999998
20
-79.4173880000000025
11
191.664999999999992
21
-79.4249999999999972
0
LINE
8
BLACK
6
CONTINUOUS
10
191.664999999999992
20
-79.4249999999999972
11
190.3899999999999864
21
-79.4249999999999972
0
LINE
8
BLACK
6
CONTINUOUS
10
190.3899999999999864
20
-79.4249999999999972
11
190.3517319999999984
21
-79.4173880000000025
0
LINE
8
BLACK
6
CONTINUOUS
10
190.3517319999999984
20
-79.4173880000000025
11
190.3192889999999977
21
-79.3957109999999915
0
LINE
8
BLACK
6
CONTINUOUS
10
190.3192889999999977
20
-79.3957109999999915
11
190.2976119999999867
21
-79.3632679999999908
0
LINE
8
BLACK
6
CONTINUOUS
10
190.2976119999999867
20
-79.3632679999999908
11
190.289999999999992
21
-79.3250000000000028
0
LINE
8
BLACK
6
CONTINUOUS
10
190.289999999999992
20
-79.3250000000000028
11
190.289999999999992
21
-79.125
0
LINE
8
BLACK
6
CONTINUOUS
10
190.289999999999992
20
-79.125
11
190.2976119999999867
21
-79.0867319999999978
0
LINE
8
BLACK
6
CONTINUOUS
10
190.2976119999999867
20
-79.0867319999999978
11
190.3192889999999977
21
-79.0542889999999971
0
LINE
8
BLACK
6
CONTINUOUS
10
190.3192889999999977
20
-79.0542889999999971
11
190.3517319999999984
21
-79.0326120000000003
0
LINE
8
BLACK
6
CONTINUOUS
10
190.3517319999999984
20
-79.0326120000000003
11
190.3899999999999864
21
-79.0249999999999915
0
LINE
8
BLACK
6
CONTINUOUS
10
190.3899999999999864
20
-79.0249999999999915
11
191.664999999999992
21
-79.0249999999999915
0
LINE
8
BLACK
6
CONTINUOUS
10
191.664999999999992
20
-79.0249999999999915
11
191.70326799999998
21
-79.0326120000000003
0
LINE
8
BLACK
6
CONTINUOUS
10
197.4282680000000028
20
-79.0326120000000003
11
197.4607110000000034
21
-79.0542889999999971
0
LINE
8
BLACK
6
CONTINUOUS
10
197.4607110000000034
20
-79.0542889999999971
11
197.4823879999999861
21
-79.0867319999999978
0
LINE
8
BLACK
6
CONTINUOUS
10
197.4823879999999861
20
-79.0867319999999978
11
197.4899999999999807
21
-79.125
0
LINE
8
BLACK
6
CONTINUOUS
10
197.4899999999999807
20
-79.125
11
197.4899999999999807
21
-79.3250000000000028
0
LINE
8
BLACK
6
CONTINUOUS
10
197.4899999999999807
20
-79.3250000000000028
11
197.4823879999999861
21
-79.3632679999999908
0
LINE
8
BLACK
6
CONTINUOUS
10
197.4823879999999861
20
-79.3632679999999908
11
197.4607110000000034
21
-79.3957109999999915
0
LINE
8
BLACK
6
CONTINUOUS
10
197.4607110000000034
20
-79.3957109999999915
11
197.4282680000000028
21
-79.4173880000000025
0
LINE
8
BLACK
6
CONTINUOUS
10
197.4282680000000028
20
-79.4173880000000025
11
197.3899999999999864
21
-79.4249999999999972
0
LINE
8
BLACK
6
CONTINUOUS
10
197.3899999999999864
20
-79.4249999999999972
11
196.1149999999999807
21
-79.4249999999999972
0
LINE
8
BLACK
6
CONTINUOUS
10
196.1149999999999807
20
-79.4249999999999972
11
196.0767319999999927
21
-79.4173880000000025
0
LINE
8
BLACK
6
CONTINUOUS
10
196.0767319999999927
20
-79.4173880000000025
11
196.044288999999992
21
-79.3957109999999915
0
LINE
8
BLACK
6
CONTINUOUS
10
196.044288999999992
20
-79.3957109999999915
11
196.022611999999981
21
-79.3632679999999908
0
LINE
8
BLACK
6
CONTINUOUS
10
196.022611999999981
20
-79.3632679999999908
11
196.0149999999999864
21
-79.3250000000000028
0
LINE
8
BLACK
6
CONTINUOUS
10
196.0149999999999864
20
-79.3250000000000028
11
196.0149999999999864
21
-79.125
0
LINE
8
BLACK
6
CONTINUOUS
10
196.0149999999999864
20
-79.125
11
196.022611999999981
21
-79.0867319999999978
0
LINE
8
BLACK
6
CONTINUOUS
10
196.022611999999981
20
-79.0867319999999978
11
196.044288999999992
21
-79.0542889999999971
0
LINE
8
BLACK
6
CONTINUOUS
10
196.044288999999992
20
-79.0542889999999971
11
196.0767319999999927
21
-79.0326120000000003
0
LINE
8
BLACK
6
CONTINUOUS
10
196.0767319999999927
20
-79.0326120000000003
11
196.1149999999999807
21
-79.0249999999999915
0
LINE
8
BLACK
6
CONTINUOUS
10
196.1149999999999807
20
-79.0249999999999915
11
197.3899999999999864
21
-79.0249999999999915
0
LINE
8
BLACK
6
CONTINUOUS
10
197.3899999999999864
20
-79.0249999999999915
11
197.4282680000000028
21
-79.0326120000000003
0
LINE
8
BLACK
6
CONTINUOUS
10
191.70326799999998
20
-78.3826119999999946
11
191.7357109999999807
21
-78.4042889999999915
0
LINE
8
BLACK
6
CONTINUOUS
10
191.7357109999999807
20
-78.4042889999999915
11
191.7573879999999917
21
-78.4367319999999921
0
LINE
8
BLACK
6
CONTINUOUS
10
191.7573879999999917
20
-78.4367319999999921
11
191.7649999999999864
21
-78.4749999999999943
0
LINE
8
BLACK
6
CONTINUOUS
10
191.7649999999999864
20
-78.4749999999999943
11
191.7649999999999864
21
-78.6749999999999972
0
LINE
8
BLACK
6
CONTINUOUS
10
191.7649999999999864
20
-78.6749999999999972
11
191.7573879999999917
21
-78.7132679999999993
0
LINE
8
BLACK
6
CONTINUOUS
10
191.7573879999999917
20
-78.7132679999999993
11
191.7357109999999807
21
-78.745711
0
LINE
8
BLACK
6
CONTINUOUS
10
191.7357109999999807
20
-78.745711
11
191.70326799999998
21
-78.7673879999999969
0
LINE
8
BLACK
6
CONTINUOUS
10
191.70326799999998
20
-78.7673879999999969
11
191.664999999999992
21
-78.7749999999999915
0
LINE
8
BLACK
6
CONTINUOUS
10
191.664999999999992
20
-78.7749999999999915
11
190.3899999999999864
21
-78.7749999999999915
0
LINE
8
BLACK
6
CONTINUOUS
10
190.3899999999999864
20
-78.7749999999999915
11
190.3517319999999984
21
-78.7673879999999969
0
LINE
8
BLACK
6
CONTINUOUS
10
190.3517319999999984
20
-78.7673879999999969
11
190.3192889999999977
21
-78.745711
0
LINE
8
BLACK
6
CONTINUOUS
10
190.3192889999999977
20
-78.745711
11
190.2976119999999867
21
-78.7132679999999993
0
LINE
8
BLACK
6
CONTINUOUS
10
190.2976119999999867
20
-78.7132679999999993
11
190.289999999999992
21
-78.6749999999999972
0
LINE
8
BLACK
6
CONTINUOUS
10
190.289999999999992
20
-78.6749999999999972
11
190.289999999999992
21
-78.4749999999999943
0
LINE
8
BLACK
6
CONTINUOUS
10
190.289999999999992
20
-78.4749999999999943
11
190.2976119999999867
21
-78.4367319999999921
0
LINE
8
BLACK
6
CONTINUOUS
10
190.2976119999999867
20
-78.4367319999999921
11
190.3192889999999977
21
-78.4042889999999915
0
LINE
8
BLACK
6
CONTINUOUS
10
190.3192889999999977
20
-78.4042889999999915
11
190.3517319999999984
21
-78.3826119999999946
0
LINE
8
BLACK
6
CONTINUOUS
10
190.3517319999999984
20
-78.3826119999999946
11
190.3899999999999864
21
-78.375
0
LINE
8
BLACK
6
CONTINUOUS
10
190.3899999999999864
20
-78.375
11
191.664999999999992
21
-78.375
0
LINE
8
BLACK
6
CONTINUOUS
10
191.664999999999992
20
-78.375
11
191.70326799999998
21
-78.3826119999999946
0
LINE
8
BLACK
6
CONTINUOUS
10
197.4282680000000028
20
-78.3826119999999946
11
197.4607110000000034
21
-78.4042889999999915
0
LINE
8
BLACK
6
CONTINUOUS
10
197.4607110000000034
20
-78.4042889999999915
11
197.4823879999999861
21
-78.4367319999999921
0
LINE
8
BLACK
6
CONTINUOUS
10
197.4823879999999861
20
-78.4367319999999921
11
197.4899999999999807
21
-78.4749999999999943
0
LINE
8
BLACK
6
CONTINUOUS
10
197.4899999999999807
20
-78.4749999999999943
11
197.4899999999999807
21
-78.6749999999999972
0
LINE
8
BLACK
6
CONTINUOUS
10
197.4899999999999807
20
-78.6749999999999972
11
197.4823879999999861
21
-78.7132679999999993
0
LINE
8
BLACK
6
CONTINUOUS
10
197.4823879999999861
20
-78.7132679999999993
11
197.4607110000000034
21
-78.745711
0
LINE
8
BLACK
6
CONTINUOUS
10
197.4607110000000034
20
-78.745711
11
197.4282680000000028
21
-78.7673879999999969
0
LINE
8
BLACK
6
CONTINUOUS
10
197.4282680000000028
20
-78.7673879999999969
11
197.3899999999999864
21
-78.7749999999999915
0
LINE
8
BLACK
6
CONTINUOUS
10
197.3899999999999864
20
-78.7749999999999915
11
196.1149999999999807
21
-78.7749999999999915
0
LINE
8
BLACK
6
CONTINUOUS
10
196.1149999999999807
20
-78.7749999999999915
11
196.0767319999999927
21
-78.7673879999999969
0
LINE
8
BLACK
6
CONTINUOUS
10
196.0767319999999927
20
-78.7673879999999969
11
196.044288999999992
21
-78.745711
0
LINE
8
BLACK
6
CONTINUOUS
10
196.044288999999992
20
-78.745711
11
196.022611999999981
21
-78.7132679999999993
0
LINE
8
BLACK
6
CONTINUOUS
10
196.022611999999981
20
-78.7132679999999993
11
196.0149999999999864
21
-78.6749999999999972
0
LINE
8
BLACK
6
CONTINUOUS
10
196.0149999999999864
20
-78.6749999999999972
11
196.0149999999999864
21
-78.4749999999999943
0
LINE
8
BLACK
6
CONTINUOUS
10
196.0149999999999864
20
-78.4749999999999943
11
196.022611999999981
21
-78.4367319999999921
0
LINE
8
BLACK
6
CONTINUOUS
10
196.022611999999981
20
-78.4367319999999921
11
196.044288999999992
21
-78.4042889999999915
0
LINE
8
BLACK
6
CONTINUOUS
10
196.044288999999992
20
-78.4042889999999915
11
196.0767319999999927
21
-78.3826119999999946
0
LINE
8
BLACK
6
CONTINUOUS
10
196.0767319999999927
20
-78.3826119999999946
11
196.1149999999999807
21
-78.375
0
LINE
8
BLACK
6
CONTINUOUS
10
196.1149999999999807
20
-78.375
11
197.3899999999999864
21
-78.375
0
LINE
8
BLACK
6
CONTINUOUS
10
197.3899999999999864
20
-78.375
11
197.4282680000000028
21
-78.3826119999999946
0
LINE
8
BLACK
6
CONTINUOUS
10
191.70326799999998
20
-77.7326120000000031
11
191.7357109999999807
21
-77.754289
0
LINE
8
BLACK
6
CONTINUOUS
10
191.7357109999999807
20
-77.754289
11
191.7573879999999917
21
-77.7867320000000007
0
LINE
8
BLACK
6
CONTINUOUS
10
191.7573879999999917
20
-77.7867320000000007
11
191.7649999999999864
21
-77.8250000000000028
0
LINE
8
BLACK
6
CONTINUOUS
10
191.7649999999999864
20
-77.8250000000000028
11
191.7649999999999864
21
-78.0249999999999915
0
LINE
8
BLACK
6
CONTINUOUS
10
191.7649999999999864
20
-78.0249999999999915
11
191.7573879999999917
21
-78.0632679999999937
0
LINE
8
BLACK
6
CONTINUOUS
10
191.7573879999999917
20
-78.0632679999999937
11
191.7357109999999807
21
-78.0957109999999943
0
LINE
8
BLACK
6
CONTINUOUS
10
191.7357109999999807
20
-78.0957109999999943
11
191.70326799999998
21
-78.1173879999999912
0
LINE
8
BLACK
6
CONTINUOUS
10
191.70326799999998
20
-78.1173879999999912
11
191.664999999999992
21
-78.125
0
LINE
8
BLACK
6
CONTINUOUS
10
191.664999999999992
20
-78.125
11
190.3899999999999864
21
-78.125
0
LINE
8
BLACK
6
CONTINUOUS
10
190.3899999999999864
20
-78.125
11
190.3517319999999984
21
-78.1173879999999912
0
LINE
8
BLACK
6
CONTINUOUS
10
190.3517319999999984
20
-78.1173879999999912
11
190.3192889999999977
21
-78.0957109999999943
0
LINE
8
BLACK
6
CONTINUOUS
10
190.3192889999999977
20
-78.0957109999999943
11
190.2976119999999867
21
-78.0632679999999937
0
LINE
8
BLACK
6
CONTINUOUS
10
190.2976119999999867
20
-78.0632679999999937
11
190.289999999999992
21
-78.0249999999999915
0
LINE
8
BLACK
6
CONTINUOUS
10
190.289999999999992
20
-78.0249999999999915
11
190.289999999999992
21
-77.8250000000000028
0
LINE
8
BLACK
6
CONTINUOUS
10
190.289999999999992
20
-77.8250000000000028
11
190.2976119999999867
21
-77.7867320000000007
0
LINE
8
BLACK
6
CONTINUOUS
10
190.2976119999999867
20
-77.7867320000000007
11
190.3192889999999977
21
-77.754289
0
LINE
8
BLACK
6
CONTINUOUS
10
190.3192889999999977
20
-77.754289
11
190.3517319999999984
21
-77.7326120000000031
0
LINE
8
BLACK
6
CONTINUOUS
10
190.3517319999999984
20
-77.7326120000000031
11
190.3899999999999864
21
-77.7249999999999943
0
LINE
8
BLACK
6
CONTINUOUS
10
190.3899999999999864
20
-77.7249999999999943
11
191.664999999999992
21
-77.7249999999999943
0
LINE
8
BLACK
6
CONTINUOUS
10
191.664999999999992
20
-77.7249999999999943
11
191.70326799999998
21
-77.7326120000000031
0
LINE
8
BLACK
6
CONTINUOUS
10
197.4282680000000028
20
-77.7326120000000031
11
197.4607110000000034
21
-77.754289
0
LINE
8
BLACK
6
CONTINUOUS
10
197.4607110000000034
20
-77.754289
11
197.4823879999999861
21
-77.7867320000000007
0
LINE
8
BLACK
6
CONTINUOUS
10
197.4823879999999861
20
-77.7867320000000007
11
197.4899999999999807
21
-77.8250000000000028
0
LINE
8
BLACK
6
CONTINUOUS
10
197.4899999999999807
20
-77.8250000000000028
11
197.4899999999999807
21
-78.0249999999999915
0
LINE
8
BLACK
6
CONTINUOUS
10
197.4899999999999807
20
-78.0249999999999915
11
197.4823879999999861
21
-78.0632679999999937
0
LINE
8
BLACK
6
CONTINUOUS
10
197.4823879999999861
20
-78.0632679999999937
11
197.4607110000000034
21
-78.0957109999999943
0
LINE
8
BLACK
6
CONTINUOUS
10
197.4607110000000034
20
-78.0957109999999943
11
197.4282680000000028
21
-78.1173879999999912
0
LINE
8
BLACK
6
CONTINUOUS
10
197.4282680000000028
20
-78.1173879999999912
11
197.3899999999999864
21
-78.125
0
LINE
8
BLACK
6
CONTINUOUS
10
197.3899999999999864
20
-78.125
11
196.1149999999999807
21
-78.125
0
LINE
8
BLACK
6
CONTINUOUS
10
196.1149999999999807
20
-78.125
11
196.0767319999999927
21
-78.1173879999999912
0
LINE
8
BLACK
6
CONTINUOUS
10
196.0767319999999927
20
-78.1173879999999912
11
196.044288999999992
21
-78.0957109999999943
0
LINE
8
BLACK
6
CONTINUOUS
10
196.044288999999992
20
-78.0957109999999943
11
196.022611999999981
21
-78.0632679999999937
0
LINE
8
BLACK
6
CONTINUOUS
10
196.022611999999981
20
-78.0632679999999937
11
196.0149999999999864
21
-78.0249999999999915
0
LINE
8
BLACK
6
CONTINUOUS
10
196.0149999999999864
20
-78.0249999999999915
11
196.0149999999999864
21
-77.8250000000000028
0
LINE
8
BLACK
6
CONTINUOUS
10
196.0149999999999864
20
-77.8250000000000028
11
196.022611999999981
21
-77.7867320000000007
0
LINE
8
BLACK
6
CONTINUOUS
10
196.022611999999981
20
-77.7867320000000007
11
196.044288999999992
21
-77.754289
0
LINE
8
BLACK
6
CONTINUOUS
10
196.044288999999992
20
-77.754289
11
196.0767319999999927
21
-77.7326120000000031
0
LINE
8
BLACK
6
CONTINUOUS
10
196.0767319999999927
20
-77.7326120000000031
11
196.1149999999999807
21
-77.7249999999999943
0
LINE
8
BLACK
6
CONTINUOUS
10
196.1149999999999807
20
-77.7249999999999943
11
197.3899999999999864
21
-77.7249999999999943
0
LINE
8
BLACK
6
CONTINUOUS
10
197.3899999999999864
20
-77.7249999999999943
11
197.4282680000000028
21
-77.7326120000000031
0
LINE
8
BLACK
6
CONTINUOUS
10
141.2699999999999818
20
-52.5499999999999972
11
140.9199999999999875
21
-52.5499999999999972
0
LINE
8
BLACK
6
CONTINUOUS
10
140.9199999999999875
20
-52.5499999999999972
11
140.9199999999999875
21
-51.9749999999999943
0
LINE
8
BLACK
6
CONTINUOUS
10
140.9199999999999875
20
-51.9749999999999943
11
141.2699999999999818
21
-51.9749999999999943
0
LINE
8
BLACK
6
CONTINUOUS
10
141.2699999999999818
20
-51.9749999999999943
11
141.2699999999999818
21
-52.5499999999999972
0
LINE
8
BLACK
6
CONTINUOUS
10
141.7699999999999818
20
-52.5499999999999972
11
141.4199999999999875
21
-52.5499999999999972
0
LINE
8
BLACK
6
CONTINUOUS
10
141.4199999999999875
20
-52.5499999999999972
11
141.4199999999999875
21
-51.9749999999999943
0
LINE
8
BLACK
6
CONTINUOUS
10
141.4199999999999875
20
-51.9749999999999943
11
141.7699999999999818
21
-51.9749999999999943
0
LINE
8
BLACK
6
CONTINUOUS
10
141.7699999999999818
20
-51.9749999999999943
11
141.7699999999999818
21
-52.5499999999999972
0
LINE
8
BLACK
6
CONTINUOUS
10
142.2699999999999818
20
-52.5499999999999972
11
141.9199999999999875
21
-52.5499999999999972
0
LINE
8
BLACK
6
CONTINUOUS
10
141.9199999999999875
20
-52.5499999999999972
11
141.9199999999999875
21
-51.9749999999999943
0
LINE
8
BLACK
6
CONTINUOUS
10
141.9199999999999875
20
-51.9749999999999943
11
142.2699999999999818
21
-51.9749999999999943
0
LINE
8
BLACK
6
CONTINUOUS
10
142.2699999999999818
20
-51.9749999999999943
11
142.2699999999999818
21
-52.5499999999999972
0
LINE
8
BLACK
6
CONTINUOUS
10
140.7199999999999989
20
-52.2749999999999986
11
140.1449999999999818
21
-52.2749999999999986
0
LINE
8
BLACK
6
CONTINUOUS
10
140.1449999999999818
20
-52.2749999999999986
11
140.1449999999999818
21
-51.9249999999999972
0
LINE
8
BLACK
6
CONTINUOUS
10
140.1449999999999818
20
-51.9249999999999972
11
140.7199999999999989
21
-51.9249999999999972
0
LINE
8
BLACK
6
CONTINUOUS
10
140.7199999999999989
20
-51.9249999999999972
11
140.7199999999999989
21
-52.2749999999999986
0
LINE
8
BLACK
6
CONTINUOUS
10
143.0449999999999875
20
-52.2749999999999986
11
142.4699999999999989
21
-52.2749999999999986
0
LINE
8
BLACK
6
CONTINUOUS
10
142.4699999999999989
20
-52.2749999999999986
11
142.4699999999999989
21
-51.9249999999999972
0
LINE
8
BLACK
6
CONTINUOUS
10
142.4699999999999989
20
-51.9249999999999972
11
143.0449999999999875
21
-51.9249999999999972
0
LINE
8
BLACK
6
CONTINUOUS
10
143.0449999999999875
20
-51.9249999999999972
11
143.0449999999999875
21
-52.2749999999999986
0
LINE
8
BLACK
6
CONTINUOUS
10
140.7199999999999989
20
-51.7749999999999986
11
140.1449999999999818
21
-51.7749999999999986
0
LINE
8
BLACK
6
CONTINUOUS
10
140.1449999999999818
20
-51.7749999999999986
11
140.1449999999999818
21
-51.4249999999999972
0
LINE
8
BLACK
6
CONTINUOUS
10
140.1449999999999818
20
-51.4249999999999972
11
140.7199999999999989
21
-51.4249999999999972
0
LINE
8
BLACK
6
CONTINUOUS
10
140.7199999999999989
20
-51.4249999999999972
11
140.7199999999999989
21
-51.7749999999999986
0
LINE
8
BLACK
6
CONTINUOUS
10
143.0449999999999875
20
-51.7749999999999986
11
142.4699999999999989
21
-51.7749999999999986
0
LINE
8
BLACK
6
CONTINUOUS
10
142.4699999999999989
20
-51.7749999999999986
11
142.4699999999999989
21
-51.4249999999999972
0
LINE
8
BLACK
6
CONTINUOUS
10
142.4699999999999989
20
-51.4249999999999972
11
143.0449999999999875
21
-51.4249999999999972
0
LINE
8
BLACK
6
CONTINUOUS
10
143.0449999999999875
20
-51.4249999999999972
11
143.0449999999999875
21
-51.7749999999999986
0
LINE
8
BLACK
6
CONTINUOUS
10
140.7199999999999989
20
-51.2749999999999986
11
140.1449999999999818
21
-51.2749999999999986
0
LINE
8
BLACK
6
CONTINUOUS
10
140.1449999999999818
20
-51.2749999999999986
11
140.1449999999999818
21
-50.9249999999999972
0
LINE
8
BLACK
6
CONTINUOUS
10
140.1449999999999818
20
-50.9249999999999972
11
140.7199999999999989
21
-50.9249999999999972
0
LINE
8
BLACK
6
CONTINUOUS
10
140.7199999999999989
20
-50.9249999999999972
11
140.7199999999999989
21
-51.2749999999999986
0
LINE
8
BLACK
6
CONTINUOUS
10
143.0449999999999875
20
-51.2749999999999986
11
142.4699999999999989
21
-51.2749999999999986
0
LINE
8
BLACK
6
CONTINUOUS
10
142.4699999999999989
20
-51.2749999999999986
11
142.4699999999999989
21
-50.9249999999999972
0
LINE
8
BLACK
6
CONTINUOUS
10
142.4699999999999989
20
-50.9249999999999972
11
143.0449999999999875
21
-50.9249999999999972
0
LINE
8
BLACK
6
CONTINUOUS
10
143.0449999999999875
20
-50.9249999999999972
11
143.0449999999999875
21
-51.2749999999999986
0
LINE
8
BLACK
6
CONTINUOUS
10
140.7199999999999989
20
-50.7749999999999986
11
140.1449999999999818
21
-50.7749999999999986
0
LINE
8
BLACK
6
CONTINUOUS
10
140.1449999999999818
20
-50.7749999999999986
11
140.1449999999999818
21
-50.4249999999999972
0
LINE
8
BLACK
6
CONTINUOUS
10
140.1449999999999818
20
-50.4249999999999972
11
140.7199999999999989
21
-50.4249999999999972
0
LINE
8
BLACK
6
CONTINUOUS
10
140.7199999999999989
20
-50.4249999999999972
11
140.7199999999999989
21
-50.7749999999999986
0
LINE
8
BLACK
6
CONTINUOUS
10
143.0449999999999875
20
-50.7749999999999986
11
142.4699999999999989
21
-50.7749999999999986
0
LINE
8
BLACK
6
CONTINUOUS
10
142.4699999999999989
20
-50.7749999999999986
11
142.4699999999999989
21
-50.4249999999999972
0
LINE
8
BLACK
6
CONTINUOUS
10
142.4699999999999989
20
-50.4249999999999972
11
143.0449999999999875
21
-50.4249999999999972
0
LINE
8
BLACK
6
CONTINUOUS
10
143.0449999999999875
20
-50.4249999999999972
11
143.0449999999999875
21
-50.7749999999999986
0
LINE
8
BLACK
6
CONTINUOUS
10
141.2699999999999818
20
-50.7249999999999943
11
140.9199999999999875
21
-50.7249999999999943
0
LINE
8
BLACK
6
CONTINUOUS
10
140.9199999999999875
20
-50.7249999999999943
11
140.9199999999999875
21
-50.1499999999999986
0
LINE
8
BLACK
6
CONTINUOUS
10
140.9199999999999875
20
-50.1499999999999986
11
141.2699999999999818
21
-50.1499999999999986
0
LINE
8
BLACK
6
CONTINUOUS
10
141.2699999999999818
20
-50.1499999999999986
11
141.2699999999999818
21
-50.7249999999999943
0
LINE
8
BLACK
6
CONTINUOUS
10
141.7699999999999818
20
-50.7249999999999943
11
141.4199999999999875
21
-50.7249999999999943
0
LINE
8
BLACK
6
CONTINUOUS
10
141.4199999999999875
20
-50.7249999999999943
11
141.4199999999999875
21
-50.1499999999999986
0
LINE
8
BLACK
6
CONTINUOUS
10
141.4199999999999875
20
-50.1499999999999986
11
141.7699999999999818
21
-50.1499999999999986
0
LINE
8
BLACK
6
CONTINUOUS
10
141.7699999999999818
20
-50.1499999999999986
11
141.7699999999999818
21
-50.7249999999999943
0
LINE
8
BLACK
6
CONTINUOUS
10
142.2699999999999818
20
-50.7249999999999943
11
141.9199999999999875
21
-50.7249999999999943
0
LINE
8
BLACK
6
CONTINUOUS
10
141.9199999999999875
20
-50.7249999999999943
11
141.9199999999999875
21
-50.1499999999999986
0
LINE
8
BLACK
6
CONTINUOUS
10
141.9199999999999875
20
-50.1499999999999986
11
142.2699999999999818
21
-50.1499999999999986
0
LINE
8
BLACK
6
CONTINUOUS
10
142.2699999999999818
20
-50.1499999999999986
11
142.2699999999999818
21
-50.7249999999999943
  0
ENDSEC
  0
EOF
